<svg width="54" height="52" viewBox="0 0 54 52" fill="none" xmlns="http://www.w3.org/2000/svg">
<rect x="0.901001" width="52.4505" height="51.0438" rx="8" fill="#424242"/>
<path d="M28.7973 8H19.014L8.901 25.5219L19.014 43.0438L21.0146 39.5922L12.8803 25.5219L21.0146 11.4516H26.8186L28.7973 8Z" fill="white"/>
<path d="M21.8937 19.8938L23.8944 16.4641L21.0144 11.4516L19.0137 14.9032L21.8937 19.8938Z" fill="white"/>
<path d="M33.2599 11.4736L35.2605 14.9252L21.0144 39.5921L19.0137 36.1405L33.2599 11.4736Z" fill="white"/>
<path d="M25.4553 43.0438L27.4559 39.5702H33.2599L41.3723 25.5219L33.2599 11.4736L35.2605 8L45.3515 25.5219L35.2605 43.0438H25.4553Z" fill="white"/>
<path d="M32.3146 31.084L30.314 34.5357L33.26 39.5702L35.2606 36.1625L32.3146 31.084Z" fill="white"/>
</svg>
