<svg width="201" height="150" viewBox="0 0 201 150" fill="none" xmlns="http://www.w3.org/2000/svg">
<path d="M41.1462 61.0581H36.9503C36.2745 61.0581 35.7266 61.6038 35.7266 62.2769V88.7432C35.7266 89.4163 36.2745 89.962 36.9503 89.962H41.1462C41.822 89.962 42.37 89.4163 42.37 88.7432V62.2769C42.37 61.6038 41.822 61.0581 41.1462 61.0581Z" fill="black"/>
<path d="M30.8318 83.2576H19.2933V62.1891C19.2933 61.4926 18.7688 60.9702 18.0695 60.9702H13.7863C13.087 60.9702 12.5625 61.4926 12.5625 62.1891V88.6553C12.5625 89.3518 13.087 89.8742 13.7863 89.8742H30.7444C31.4437 89.8742 31.9682 89.3518 31.9682 88.6553V84.3894C31.9682 83.6929 31.4437 83.1705 30.7444 83.1705L30.8318 83.2576Z" fill="black"/>
<path d="M94.3811 67.6746C95.0804 67.6746 95.6049 67.1522 95.6049 66.4557V62.1898C95.6049 61.4933 95.0804 60.9709 94.3811 60.9709H77.423C76.7237 60.9709 76.1992 61.4933 76.1992 62.1898V88.656C76.1992 89.3525 76.7237 89.8749 77.423 89.8749H94.3811C95.0804 89.8749 95.6049 89.3525 95.6049 88.656V84.3901C95.6049 83.6936 95.0804 83.1713 94.3811 83.1713H82.8426V78.6441H94.3811C95.0804 78.6441 95.6049 78.1218 95.6049 77.4253V73.1594C95.6049 72.4629 95.0804 71.9405 94.3811 71.9405H82.8426V67.4134H94.3811V67.6746Z" fill="black"/>
<path d="M70.5175 61.0581H66.2343C65.535 61.0581 65.0105 61.5805 65.0105 62.2769V77.5995L53.8217 61.6675C53.472 61.2322 53.0349 61.0581 52.5105 61.0581H52.3356H48.0524C47.3531 61.0581 46.8286 61.5805 46.8286 62.2769V88.7432C46.8286 89.4397 47.3531 89.962 48.0524 89.962H52.3356C53.0349 89.962 53.5594 89.4397 53.5594 88.7432V72.7242L65.1853 89.3526C65.1853 89.3526 65.2728 89.4397 65.3602 89.5267C65.535 89.7879 65.8847 89.962 66.1469 89.962H70.5175C71.2168 89.962 71.7413 89.4397 71.7413 88.7432V62.2769C71.7413 61.5805 71.2168 61.0581 70.5175 61.0581Z" fill="black"/>
<path d="M185.466 50H109.766C108.125 50 106.794 51.3253 106.794 52.96V98.0572C106.794 99.6919 108.125 101.017 109.766 101.017H185.466C187.107 101.017 188.438 99.6919 188.438 98.0572V52.96C188.438 51.3253 187.107 50 185.466 50Z" fill="#08BF5B"/>
<path d="M136.164 69.8498C136.164 74.2898 132.58 77.9463 127.86 77.9463H124.276V84.5629C124.276 84.9982 123.926 85.3465 123.489 85.3465H119.643C119.206 85.3465 118.856 84.9982 118.856 84.5629V62.5367C118.856 62.1014 119.206 61.7532 119.643 61.7532H127.773C132.405 61.7532 136.077 65.3226 136.077 69.8498H136.164ZM130.745 69.8498C130.745 68.1086 129.521 66.8027 127.86 66.8027H124.276V72.8969H127.86C129.521 72.8969 130.745 71.591 130.745 69.8498Z" fill="white"/>
<path d="M156.269 68.9781V84.9972C156.269 85.2584 156.094 85.4325 155.832 85.4325H151.636C151.374 85.4325 151.199 85.2584 151.199 84.9972V83.8654C150.063 85.1713 148.402 85.9548 146.129 85.9548C141.671 85.9548 138.087 82.1242 138.087 77.0747C138.087 72.0252 141.759 68.1946 146.129 68.1946C150.5 68.1946 150.063 68.9781 151.199 70.284V69.1522C151.199 68.8911 151.374 68.7169 151.636 68.7169H155.832C156.094 68.7169 156.269 68.8911 156.269 69.1522V68.9781ZM151.199 76.9876C151.199 74.4629 149.539 72.8958 147.178 72.8958C144.818 72.8958 143.157 74.4629 143.157 76.9876C143.157 79.5124 144.818 81.0795 147.178 81.0795C149.539 81.0795 151.199 79.5124 151.199 76.9876Z" fill="white"/>
<path d="M173.14 68.9792L169.207 78.73L165.186 68.9792C165.098 68.7181 164.836 68.5439 164.574 68.5439H160.291C160.028 68.5439 159.766 68.8051 159.941 69.1534L166.672 85.4336L164.224 91.6149C164.137 91.876 164.312 92.2243 164.574 92.2243H168.857C169.119 92.2243 169.381 92.0502 169.469 91.789L178.472 69.2404C178.56 68.9792 178.385 68.631 178.123 68.631H173.84C173.577 68.631 173.315 68.8051 173.228 69.0663L173.14 68.9792Z" fill="white"/>
</svg>
