<svg width="150" height="150" viewBox="0 0 150 150" fill="none" xmlns="http://www.w3.org/2000/svg">
<path d="M119.489 93.6344C119.489 93.6344 119.933 90.4039 122.792 90.4039C125.577 90.4039 126.054 93.6344 126.054 93.6344H119.489ZM129.284 94.0643C128.896 90.6441 126.871 87.0957 122.48 87.0957C122.48 87.0957 116.569 87.0941 116.097 95.1075C116.087 95.2669 116.096 95.4278 116.103 95.5863C116.12 96.0018 116.162 96.4158 116.225 96.8265C116.312 97.3997 116.44 97.9666 116.616 98.519C116.819 99.1571 117.087 99.7776 117.432 100.352C117.806 100.976 118.273 101.546 118.827 102.018C119.45 102.549 120.178 102.947 120.955 103.205C121.44 103.366 121.951 103.488 122.46 103.537C123.157 103.606 123.861 103.51 124.539 103.342C125.629 103.073 126.638 102.547 127.481 101.803C127.832 101.494 128.173 101.147 128.432 100.755C128.432 100.755 128.979 99.9281 128.674 99.1018C128.482 98.579 128.091 98.1003 127.501 98.0482C126.827 97.9882 126.444 98.5062 126.025 98.9369C126.025 98.9369 124.988 100.231 122.955 100.231C121.69 100.231 120.747 99.6431 120.137 98.6775C119.735 98.041 119.493 97.21 119.448 96.4606H124.969C125.646 96.4606 126.323 96.4574 126.999 96.4606C127.226 96.4614 127.453 96.4574 127.68 96.4702C127.905 96.4822 128.139 96.4838 128.357 96.423C128.629 96.3461 128.926 96.1235 129.076 95.8881C129.423 95.3485 129.354 94.6792 129.284 94.0643Z" fill="#F3801F"/>
<mask id="mask0_454_7695" style="mask-type:luminance" maskUnits="userSpaceOnUse" x="128" y="87" width="14" height="23">
<path d="M128.241 87.3086H141.25V109.854H128.241V87.3086Z" fill="white"/>
</mask>
<g mask="url(#mask0_454_7695)">
<path d="M129.254 90.3842C129.303 90.5307 129.356 90.6772 129.41 90.8229C129.41 91.0006 129.572 91.2672 129.633 91.4362L129.869 92.0807C130.027 92.5114 130.184 92.9413 130.342 93.3713C130.648 94.2103 130.958 95.0486 131.272 95.8852C131.626 96.8268 131.984 97.7675 132.346 98.7058C132.531 99.1846 132.715 99.6618 132.903 100.14C132.994 100.374 133.086 100.607 133.178 100.842C133.225 100.959 133.271 101.076 133.318 101.193C133.34 101.252 133.478 101.492 133.456 101.546C133.182 102.237 132.885 102.925 132.498 103.562C132.015 104.355 131.348 105.052 130.632 105.641C130.478 105.768 129.956 106.171 129.785 106.277C129.422 106.503 129.045 106.657 128.757 106.986C128.474 107.31 128.318 107.716 128.318 108.148C128.318 108.501 128.4 108.855 128.592 109.153C128.752 109.401 128.967 109.608 129.226 109.748C129.495 109.893 129.843 109.848 130.125 109.757C130.394 109.67 130.643 109.527 130.884 109.379C131.94 108.726 132.922 107.938 133.752 107.012C133.835 106.921 133.913 106.827 133.99 106.732C134.08 106.622 134.168 106.51 134.249 106.393C134.249 106.393 135.582 104.655 136.372 102.619C137.162 100.584 138.127 97.934 138.127 97.934C138.798 96.1534 139.462 94.3705 140.141 92.5931C140.383 91.9598 140.626 91.3265 140.867 90.6924C141.124 90.0231 141.382 89.2921 141.175 88.6068C140.894 87.6805 139.617 87.048 138.867 87.8478C138.587 88.1472 138.436 88.5419 138.292 88.9254C137.638 90.6628 136.986 92.4009 136.338 94.1399C136.06 94.8853 135.782 95.6306 135.505 96.376C135.448 96.5273 135.088 97.1726 135.149 97.3312C134.808 96.4361 134.467 95.5402 134.127 94.6451C133.498 92.9918 132.865 91.3393 132.245 89.6828C132.094 89.2801 131.941 88.8782 131.78 88.4795C131.639 88.1288 131.386 87.8142 131.052 87.6292C130.555 87.353 129.88 87.4819 129.483 87.8774C129.113 88.2441 128.982 88.7981 129.017 89.3177C129.04 89.682 129.137 90.0359 129.254 90.3842Z" fill="#F3801F"/>
</g>
<path d="M67.0105 88.9331C66.9881 89.1404 66.9897 89.3518 66.9913 89.5591C66.9969 90.1596 66.9969 90.7593 66.9969 91.3597V99.2115C66.9969 99.6478 66.9977 100.084 66.9985 100.52C66.9985 100.922 66.9729 101.332 67.0217 101.731C67.0738 102.162 67.2195 102.584 67.5117 102.913C67.7615 103.194 68.1042 103.359 68.4781 103.392C68.5309 103.396 68.5821 103.398 68.635 103.398C69.125 103.398 69.5509 103.163 69.8303 102.764C70.0673 102.426 70.1914 102.027 70.245 101.622C70.3027 101.194 70.2867 100.762 70.2827 100.332C70.2795 99.9736 70.2803 99.615 70.2811 99.2571C70.2819 98.904 70.2811 98.5509 70.2811 98.1987V93.9706C70.2811 93.535 70.2691 93.1099 70.3675 92.6824C70.4972 92.1155 70.755 91.5399 71.1938 91.1452C71.6021 90.7785 72.1321 90.6032 72.6749 90.5799C72.7222 90.5775 72.7686 90.5767 72.8158 90.5767C73.3611 90.5767 73.8991 90.7337 74.3146 91.0963C74.6757 91.4118 74.9063 91.8393 75.064 92.2869C75.2858 92.9178 75.2842 93.5983 75.2826 94.2588C75.2826 95.5734 75.2794 96.888 75.2794 98.2027V101.616C75.2794 101.616 75.4227 103.398 76.8934 103.398C78.365 103.398 78.4939 101.759 78.4939 101.759V93.8913C78.4939 93.8913 78.5291 90.5735 81.2664 90.5735C83.806 90.5655 83.5778 93.8201 83.5778 93.8201V101.801C83.5778 101.801 83.7868 103.398 85.1871 103.398C86.5874 103.398 86.7811 101.833 86.7811 101.833V93.0947C86.7811 93.0947 86.5978 87.0972 82.0078 87.0972C78.6716 87.0972 77.5355 89.7633 77.5035 89.7569C77.4923 89.7545 77.4771 89.7121 77.4723 89.7041C77.4474 89.656 77.4218 89.6072 77.3954 89.5599C77.3546 89.4863 77.3129 89.4134 77.2689 89.3422C77.2121 89.2501 77.1528 89.1588 77.0912 89.07C77.0175 88.9643 76.9406 88.8618 76.859 88.7609C76.7685 88.648 76.6724 88.5391 76.5724 88.4335C76.4627 88.319 76.3466 88.2093 76.2265 88.106C76.0976 87.9955 75.9615 87.8922 75.8206 87.797C75.6701 87.6961 75.5139 87.604 75.3514 87.524C74.867 87.283 74.333 87.1429 73.7934 87.1124C73.6549 87.1044 73.514 87.0964 73.3755 87.0972C73.0312 87.1004 72.6965 87.1661 72.3755 87.2894C72.1898 87.3606 72.0112 87.4503 71.8407 87.552C71.6717 87.6521 71.5116 87.7649 71.3595 87.8882C71.1818 88.0316 71.0144 88.1885 70.8583 88.355C70.6758 88.5496 70.5068 88.7577 70.3507 88.9739C70.3307 89.0027 70.3107 89.0307 70.2907 89.0596C70.2907 89.0596 70.0985 87.2109 68.6702 87.2109C68.0938 87.2109 67.6198 87.528 67.33 88.0147C67.2243 88.1941 67.1306 88.395 67.0738 88.596C67.0425 88.7065 67.0225 88.8194 67.0105 88.9331Z" fill="#F3801F"/>
<path d="M94.6521 100.098C92.6489 100.098 91.0253 97.9563 91.0253 95.3142C91.0253 92.673 92.6489 90.5313 94.6521 90.5313C96.6553 90.5313 98.2789 92.673 98.2789 95.3142C98.2789 97.9563 96.6553 100.098 94.6521 100.098ZM94.6521 87.0742C90.9004 87.0742 87.8596 90.7587 87.8596 95.303C87.8596 99.8474 90.9004 103.532 94.6521 103.532C98.403 103.532 101.445 99.8474 101.445 95.303C101.445 90.7587 98.403 87.0742 94.6521 87.0742Z" fill="#F3801F"/>
<path d="M105.734 89.0973C105.734 88.7634 105.655 88.4319 105.492 88.1405C105.256 87.7202 104.817 87.2382 104.04 87.2382C103.568 87.239 103.164 87.4816 102.896 87.8627C102.788 88.0164 102.701 88.1854 102.633 88.3607C102.532 88.6193 102.495 88.8691 102.496 89.1477V89.1781C102.496 89.7826 102.498 90.3871 102.498 90.9923V101.055C102.498 101.406 102.466 101.752 102.565 102.096C102.774 102.826 103.37 103.407 104.154 103.407C105.532 103.407 105.704 101.864 105.704 101.864V94.4318C105.704 94.0307 105.757 93.632 105.865 93.2469C106.152 92.2181 106.853 90.5368 108.842 90.5368C109.498 90.5368 110.132 90.7489 110.619 91.1965C111.022 91.5672 111.299 92.0564 111.487 92.5664C111.842 93.5335 111.807 94.5455 111.798 95.5575C111.796 95.8569 111.793 96.1556 111.793 96.455V100.635C111.793 101.148 111.713 101.674 111.888 102.17C112.128 102.851 112.726 103.407 113.475 103.407C114.016 103.407 114.463 103.119 114.728 102.654C115.001 102.173 115.022 101.678 115.023 101.134C115.025 100.015 115.018 98.8969 115.018 97.7784V94.5863C115.018 93.3406 114.885 92.1236 114.47 90.9387C114.177 90.1052 113.769 89.2982 113.188 88.6281C112.549 87.8915 111.703 87.3695 110.741 87.1822C110.436 87.1229 110.124 87.0957 109.813 87.0957C107.286 87.0957 105.995 88.8138 105.783 89.1125C105.773 89.1253 105.734 89.1141 105.734 89.0973Z" fill="#F3801F"/>
<path d="M78.7372 124.359C78.7164 124.215 78.7324 124.051 78.7324 123.909V108.046C78.7324 107.773 78.8477 107.496 79.0383 107.299C79.2328 107.098 79.5026 107.005 79.7789 106.995C79.7965 106.994 79.8141 106.994 79.8325 106.994C80.1143 106.994 80.3905 107.083 80.5955 107.283C80.8341 107.516 80.9518 107.834 80.951 108.165C80.9502 108.468 80.9502 108.772 80.9502 109.075V123.665C80.9502 123.91 80.979 124.176 80.9205 124.413C80.7956 124.925 80.3665 125.261 79.8413 125.261C79.3457 125.261 78.8942 124.934 78.7565 124.451C78.7477 124.422 78.7413 124.391 78.7372 124.359Z" fill="#808083"/>
<path d="M83.5893 124.359C83.5685 124.215 83.5845 124.051 83.5845 123.909V108.046C83.5845 107.773 83.6998 107.496 83.8903 107.299C84.0849 107.098 84.3539 107.005 84.6309 106.995C84.6485 106.994 84.6661 106.994 84.6846 106.994C84.9664 106.994 85.2434 107.083 85.4467 107.283C85.6861 107.516 85.8038 107.834 85.803 108.165C85.8022 108.468 85.8022 108.772 85.8022 109.075V123.665C85.8022 123.91 85.831 124.176 85.7734 124.413C85.6477 124.925 85.2186 125.261 84.6934 125.261C84.1978 125.261 83.7462 124.934 83.6085 124.451C83.5997 124.422 83.5933 124.391 83.5893 124.359Z" fill="#808083"/>
<path d="M60.9127 121.367C60.8863 121.256 60.8599 121.147 60.8343 121.037C60.7814 120.817 60.7294 120.598 60.6774 120.377C60.5733 119.938 60.4708 119.498 60.3683 119.058C60.1353 118.053 59.8952 117.028 59.6598 116.016C59.4236 115.004 59.2178 113.98 58.9424 112.98C58.9256 112.919 58.9088 112.859 58.8904 112.799C58.8135 112.543 58.707 112.294 58.5021 112.113C58.1986 111.843 57.6974 111.803 57.2955 111.86C57.0057 111.9 56.7087 111.995 56.5085 112.208C56.3004 112.43 56.2267 112.741 56.161 113.037C55.5237 115.918 54.8857 118.798 54.2476 121.678C53.5606 118.917 52.8729 116.155 52.186 113.394C52.0466 112.836 51.8609 112.216 51.3541 111.947C50.8994 111.704 50.2821 111.894 50.0019 112.315C49.6055 112.91 49.7913 113.651 49.973 114.286C50.9042 117.541 51.8345 120.795 52.7648 124.05C52.8689 124.413 52.9882 124.801 53.286 125.034C53.5294 125.224 53.8528 125.276 54.1611 125.29C54.5286 125.307 54.9289 125.264 55.1987 125.015C55.4397 124.79 55.5245 124.449 55.5974 124.128L57.4725 115.893C57.4781 115.869 57.5101 115.871 57.5165 115.895C58.1314 118.312 58.6942 120.741 59.2683 123.168C59.3475 123.505 59.4268 123.842 59.5052 124.18C59.5677 124.445 59.6365 124.724 59.8167 124.93C60.0593 125.205 60.4516 125.292 60.8183 125.3C61.1089 125.307 61.4099 125.271 61.6581 125.12C62.0424 124.89 62.2298 124.437 62.3314 123.999C62.6261 122.726 63.0112 121.473 63.3667 120.213C63.9271 118.221 64.5636 116.247 65.0768 114.242C65.1248 114.056 65.1713 113.868 65.2161 113.681C65.2649 113.474 65.3122 113.26 65.3234 113.048C65.3386 112.749 65.2809 112.454 65.0552 112.193C64.8422 111.947 64.5211 111.817 64.1961 111.839C63.3106 111.898 63.108 112.908 62.9535 113.599C62.3467 116.301 61.6573 119.036 60.9896 121.683" fill="#808083"/>
<path d="M73.8957 120.74C73.818 121.348 73.5122 121.905 73.0694 122.324C72.8581 122.524 72.6163 122.692 72.3537 122.818C71.5835 123.185 70.6315 123.267 69.8053 123.06C69.0151 122.862 68.6115 122.226 68.6444 121.425C68.6716 120.758 69.0159 120.197 69.5755 119.85C70.1007 119.524 70.7068 119.376 71.3088 119.269C72.0943 119.13 72.9125 119.034 73.6587 118.74C73.7203 118.715 73.806 118.68 73.9061 118.632C73.9061 118.995 73.9061 119.359 73.9069 119.724C73.9085 120.06 73.9381 120.406 73.8957 120.74ZM76.8628 123.21C76.6626 123.121 76.4056 123.147 76.2591 122.983C76.1246 122.832 76.1198 122.576 76.1206 122.374C76.1342 120.438 76.147 118.503 76.1606 116.567C76.1654 115.823 76.1694 115.07 76.0005 114.347C75.83 113.622 75.4673 112.917 74.866 112.479C74.3904 112.132 73.8036 111.976 73.2247 111.871C72.0406 111.657 70.7956 111.632 69.6548 112.017C68.7997 112.306 68.0095 112.845 67.4883 113.588C67.1456 114.078 66.8286 114.776 66.8958 115.406C66.9206 115.641 66.9991 115.868 67.1512 116.07C67.5075 116.546 68.2817 116.692 68.7172 116.288C69.1111 115.923 69.1127 115.305 69.3721 114.836C69.7348 114.181 70.5451 113.913 71.292 113.873C72.0286 113.833 72.814 113.98 73.3616 114.473C73.9109 114.966 74.1254 115.868 73.6931 116.466C73.4049 116.865 72.9085 117.054 72.4313 117.178C71.4594 117.435 70.4482 117.521 69.4754 117.778C68.5035 118.035 67.5339 118.498 66.9535 119.319C66.3954 120.106 66.2665 121.129 66.3634 122.089C66.4363 122.814 66.6388 123.547 67.0896 124.12C67.6588 124.843 68.5683 125.234 69.4802 125.352C71.1575 125.571 72.9245 124.907 74.0422 123.638C74.0606 124.153 74.3056 124.655 74.6995 124.987C75.0942 125.318 75.6298 125.467 76.1398 125.397C76.6482 125.326 77.183 125.03 77.3287 124.537C77.468 124.064 77.3311 123.42 76.8628 123.21Z" fill="#808083"/>
<path d="M100.651 112.019C100.65 111.941 100.65 111.861 100.65 111.784C100.65 111.588 100.649 111.392 100.649 111.198C100.649 110.946 100.648 110.694 100.647 110.443C100.647 110.195 100.646 109.948 100.646 109.7C100.645 109.518 100.645 109.335 100.645 109.153C100.645 109.026 100.648 108.908 100.687 108.787C100.713 108.704 100.749 108.623 100.793 108.548C100.918 108.339 101.111 108.184 101.342 108.108C101.48 108.062 101.626 108.044 101.771 108.044C102.042 108.044 102.311 108.126 102.505 108.322C102.833 108.652 102.849 109.129 102.84 109.564C102.833 109.877 102.837 110.191 102.837 110.504V112.025H103.992C104.14 112.025 104.284 112.013 104.425 112.068C104.838 112.226 105.098 112.591 105.126 113.03C105.128 113.062 105.129 113.095 105.129 113.127C105.129 113.51 104.969 113.868 104.643 114.077C104.589 114.113 104.533 114.139 104.476 114.166C104.355 114.222 104.239 114.233 104.107 114.233C103.687 114.231 103.267 114.231 102.846 114.231V122.163C102.846 122.163 102.876 123.103 103.904 123.103C104.931 123.103 105.467 123.03 105.467 124.157C105.467 124.471 105.382 124.756 105.137 124.964C104.873 125.189 104.516 125.269 104.182 125.261C103.781 125.249 103.394 125.275 102.994 125.209C102.632 125.15 102.284 125.012 101.965 124.832C101.42 124.526 100.978 124.057 100.777 123.459C100.685 123.183 100.645 122.891 100.645 122.601V114.27C100.445 114.27 100.244 114.276 100.045 114.276C99.8503 114.277 99.6526 114.294 99.462 114.245C99.1578 114.166 98.8656 113.91 98.7367 113.626C98.6678 113.475 98.6382 113.31 98.6382 113.146C98.6382 112.751 98.8151 112.391 99.149 112.175C99.3131 112.069 99.478 112.032 99.6734 112.025C99.996 112.013 100.327 112.019 100.651 112.019Z" fill="#808083"/>
<path d="M89.9731 117.15C89.9731 117.15 90.2893 113.931 93.1211 113.931C96.1427 113.931 96.0963 117.15 96.0963 117.15H89.9731ZM98.3948 117.504C98.0794 114.665 96.9361 111.721 92.8673 111.721C89.5039 111.721 87.0276 115.878 87.841 120.201C88.2341 122.29 89.1629 124.306 91.5463 125.146C91.9378 125.284 92.4382 125.322 92.8513 125.364C94.1035 125.49 95.4702 125.079 96.4533 124.298C97.1987 123.705 98.2908 122.267 97.9089 121.207C97.7527 120.773 97.4421 120.556 96.9633 120.513C96.4165 120.464 96.0778 121.056 95.9481 121.317C95.6343 121.951 95.3949 123.16 93.1211 123.16C91.7481 123.16 90.9731 122.267 90.4783 121.466C90.1516 120.937 90.0043 119.937 89.9683 119.315H94.8953C95.4453 119.315 95.9946 119.312 96.5446 119.315C96.7279 119.315 96.9137 119.312 97.097 119.323C97.2796 119.333 97.4701 119.335 97.6471 119.284C97.8688 119.221 98.109 119.035 98.2315 118.841C98.5133 118.392 98.4517 118.014 98.3948 117.504Z" fill="#808083"/>
<path d="M15.6522 83.6538L10.9645 83.6722L10.9733 87.536L8.75881 87.5544L8.75 91.7609H10.9829C10.9829 91.7609 10.9733 97.459 10.9829 97.728C10.9925 97.997 11.0574 99.6831 12.8356 101.341C14.8924 103.37 17.3479 103.333 17.3479 103.333L20.869 103.324V99.3212H17.9596C15.9956 99.3212 15.6522 96.9498 15.6522 96.9498L15.6618 91.7793C15.6618 91.7793 17.1349 91.7705 18.8395 91.7609C20.5448 91.7521 20.869 89.8803 20.869 89.8803V87.5448L15.6522 87.5544" fill="#EC1C23"/>
<path d="M28.0913 87.5547C27.3683 87.5547 26.0761 87.5963 24.2411 89.1391C22.4069 90.6819 22.0914 92.8636 22.101 93.3968C22.1098 93.9292 22.1058 103.333 22.1058 103.333L26.655 103.338C26.655 103.338 26.6598 95.3792 26.6598 94.0493C26.6598 92.7203 28.6613 91.7708 29.2074 91.7708C29.7542 91.7708 31.8806 91.7748 31.8806 91.7748L31.8574 87.5547" fill="#EC1C23"/>
<path d="M47.3264 87.5541L42.5587 87.5677C42.5587 87.5677 42.5731 96.3378 42.5731 97.116C42.5731 97.8942 41.8365 99.4506 40.0431 99.4506C38.2505 99.4506 37.6669 97.5187 37.6669 97.1016C37.6669 96.6852 37.6805 91.1537 37.6805 89.5693C37.6805 87.9849 36.1104 87.5405 35.735 87.5405C35.3595 87.5405 33.0112 87.5677 33.0112 87.5677C33.0112 87.5677 32.9968 96.5179 32.9968 97.3241C32.9968 98.1304 33.1081 99.6868 34.6229 101.396C36.1385 103.106 37.9727 103.565 40.1544 103.537C42.3369 103.509 43.6571 103.133 45.4217 101.73C47.1871 100.326 47.3536 97.5603 47.34 96.7405C47.3264 95.9206 47.3264 87.5541 47.3264 87.5541Z" fill="#EC1C23"/>
<path d="M52.6579 93.7962C52.9061 92.8474 53.7932 90.9604 56.0405 91.1125C58.7082 91.2926 58.9868 93.809 58.9868 93.809L52.6579 93.7962ZM63.1701 92.7802C62.6 90.9596 62.0012 90.1277 61.002 89.1109C59.4039 87.4849 57.0133 87.1094 55.8876 87.1094C54.7619 87.1094 52.83 87.388 50.8421 89.0277C48.8549 90.6673 48.16 93.4471 48.1047 95.6432C48.0487 97.8393 49.2024 100.299 50.7588 101.744C52.316 103.19 54.2615 103.565 56.0125 103.551C57.7635 103.537 58.8059 103.176 60.2934 102.287C61.7802 101.396 62.8226 99.4654 62.8226 99.4654C62.8226 99.4654 59.2366 98.5615 58.4864 98.3533C58.1389 98.8673 57.1662 99.7016 55.693 99.6599C54.2199 99.6183 53.3576 98.5199 52.9829 97.9642C52.8692 97.7961 52.7836 97.4374 52.7203 97.0043C54.7907 97.0019 62.7834 96.9915 63.4479 96.9915C63.4687 95.0107 63.5175 94.1557 63.1701 92.7802Z" fill="#EC1C23"/>
<path d="M112.041 29.5557H91.8023C90.4813 29.5557 89.3044 30.3915 88.8696 31.6397C87.9049 34.4074 86.8184 37.5275 85.6975 40.7452C85.6975 40.7452 85.6975 40.7452 85.6975 40.746C85.6631 40.8453 85.6279 40.9453 85.5935 41.0446C85.5694 41.1135 85.5454 41.1823 85.5214 41.2512C82.0227 51.2926 78.2333 62.165 76.793 66.2826C76.6257 66.7958 76.4343 67.3803 76.2022 67.9816C76.1613 68.0881 75.962 68.5964 75.5953 69.0968C75.5328 69.1833 75.4704 69.261 75.4087 69.333C75.3023 69.4595 75.1678 69.6092 74.97 69.763C74.9588 69.7718 74.9476 69.779 74.9364 69.7878C74.8683 69.8406 74.7923 69.8951 74.7042 69.9487C74.488 70.0808 74.3055 70.1489 74.2342 70.1737C74.2238 70.1769 74.2142 70.1801 74.2038 70.1841C74.203 70.1841 74.2006 70.1849 74.199 70.1857C74.1926 70.1873 74.1862 70.1897 74.1798 70.1913C74.1758 70.1929 74.171 70.1945 74.1662 70.1961C73.9068 70.2826 73.6682 70.3186 73.4736 70.3298H97.8006C97.9575 70.3298 98.1144 70.3122 98.2665 70.273C98.8582 70.1208 100.123 69.5724 100.656 67.6189L113.293 31.317C113.592 30.4556 112.952 29.5557 112.041 29.5557Z" fill="#FF7A00"/>
<path d="M52.148 63.4395C52.1536 63.4243 52.1584 63.4099 52.164 63.3947L52.2104 63.2626C52.2353 63.1913 52.2601 63.1201 52.2857 63.0488C52.3193 62.9511 52.3538 62.8535 52.3882 62.7566C52.4306 62.6341 52.4738 62.5124 52.5163 62.3899C52.5675 62.245 52.618 62.1001 52.6692 61.9544C52.7276 61.7878 52.7861 61.6213 52.8445 61.454C52.911 61.2674 52.9758 61.0801 53.0415 60.8935L53.2585 60.2762C53.3361 60.0537 53.4146 59.8303 53.493 59.6077C53.5771 59.3691 53.6604 59.1298 53.7444 58.8912C53.8333 58.6382 53.9222 58.3852 54.011 58.1322C54.1039 57.8664 54.1976 57.6006 54.2905 57.334C54.3881 57.0569 54.4858 56.7799 54.5827 56.5021C54.6836 56.2147 54.7844 55.9281 54.8853 55.6406C54.9894 55.3444 55.0927 55.049 55.1968 54.7536C55.3032 54.4501 55.4089 54.1475 55.5154 53.8448C55.6235 53.5366 55.7316 53.2284 55.8405 52.9193C55.9502 52.6071 56.059 52.2948 56.1695 51.9826C56.28 51.6672 56.3905 51.3517 56.501 51.0371C56.6123 50.7208 56.7228 50.4046 56.834 50.0883L57.1663 49.1404L57.4978 48.1973C57.6066 47.8866 57.7155 47.576 57.8252 47.2645C57.9325 46.9579 58.0398 46.652 58.1479 46.3454C58.2527 46.0452 58.3576 45.7449 58.4633 45.4447C58.5658 45.1525 58.6691 44.8595 58.7715 44.5672C58.8708 44.2838 58.9709 44.0004 59.0702 43.7162C59.1655 43.4432 59.2615 43.1701 59.3576 42.8971C59.4489 42.6361 59.5409 42.3751 59.6322 42.1149C59.7195 41.8667 59.806 41.6193 59.8932 41.3719L60.1382 40.6738C60.2143 40.4576 60.2895 40.2407 60.3656 40.0245L60.5745 39.4296C60.637 39.2503 60.7002 39.0709 60.7635 38.8916C60.8187 38.7339 60.8748 38.5754 60.93 38.4168C60.9781 38.2807 61.0253 38.1446 61.0733 38.0085C61.1126 37.8956 61.1526 37.7835 61.1918 37.6707C61.2559 37.4873 61.3135 37.3 61.3992 37.1246L61.4064 37.1158L61.4104 37.1134L61.4128 37.1094L61.4168 37.1054C61.4336 37.0726 61.44 37.0438 61.4592 37.0117C61.6266 36.6427 62.0685 36.2448 62.2487 36.1887L59.5089 26.9783C59.1663 25.8062 58.0414 25 56.8701 25H37.539C36.6287 25 35.9762 25.8759 36.2348 26.7478L47.1177 63.3226C47.5676 64.6204 48.5428 65.2946 49.5404 65.3442C49.5412 65.3442 49.5412 65.3442 49.542 65.3442C50.5796 65.389 51.6372 64.7565 52.148 63.4395Z" fill="#FF000F"/>
<path d="M62.2461 36.19C62.247 36.19 62.2478 36.1883 62.2486 36.1875L62.2395 36.1933C62.2412 36.1925 62.2437 36.1917 62.2461 36.19Z" fill="#AA0016"/>
<path d="M69.7976 65.1902C69.7528 65.0381 69.7071 64.8868 69.6623 64.7347C69.6391 64.657 69.6167 64.5794 69.5926 64.5009L64.929 48.8327L61.6673 37.8746C61.5456 37.4655 61.5864 37.0572 61.7594 36.7217C61.8002 36.6416 61.8498 36.5656 61.9067 36.4951C61.9131 36.4863 61.9187 36.4767 61.9259 36.4687C62.0051 36.3734 62.098 36.2886 62.2037 36.2165C62.2149 36.2085 62.2277 36.2013 62.2397 36.1933L62.2485 36.1885C62.0684 36.2445 61.6264 36.6424 61.4591 37.0115C61.4407 37.0435 61.4231 37.0764 61.4063 37.1092C61.4039 37.114 61.4015 37.1196 61.3991 37.1244C61.3134 37.2997 61.2558 37.4871 61.1917 37.6704C61.1525 37.7833 61.1124 37.8954 61.0732 38.0083C61.0252 38.1444 60.9779 38.2805 60.9299 38.4166C60.8747 38.5751 60.8186 38.7337 60.7634 38.8914C60.7001 39.0707 60.6377 39.2501 60.5744 39.4294L60.3655 40.0243C60.2894 40.2404 60.2141 40.4574 60.1381 40.6736L59.8931 41.3717C59.8058 41.6191 59.7194 41.8665 59.6321 42.1147C59.5408 42.3749 59.4488 42.6359 59.3575 42.8969C59.2614 43.1699 59.1653 43.4429 59.0701 43.7159C58.9708 44.0002 58.8707 44.2836 58.7714 44.567C58.6689 44.8592 58.5665 45.1523 58.4632 45.4445C58.3583 45.7447 58.2526 46.0449 58.1477 46.3452C58.0397 46.6518 57.9324 46.9577 57.8251 47.2643C57.7154 47.5757 57.6065 47.8864 57.4976 48.197L57.1662 49.1402L56.8339 50.0881C56.7226 50.4043 56.6121 50.7206 56.5009 51.0368C56.3904 51.3515 56.2799 51.6669 56.1694 51.9824C56.0597 52.2946 55.95 52.6069 55.8403 52.9191C55.7323 53.2281 55.6234 53.5364 55.5153 53.8446C55.4088 54.1473 55.3031 54.4499 55.1966 54.7533C55.0926 55.0488 54.9893 55.3442 54.8852 55.6404C54.7843 55.9278 54.6834 56.2145 54.5826 56.5019C54.4857 56.7797 54.388 57.0567 54.2903 57.3337C54.1975 57.6003 54.1038 57.8661 54.0109 58.132C53.9221 58.3849 53.8332 58.6379 53.7443 58.8909C53.6602 59.1295 53.577 59.3689 53.4929 59.6075C53.4145 59.8301 53.3368 60.0534 53.2583 60.276L53.0422 60.8933C52.9757 61.0798 52.9109 61.2672 52.8452 61.4537C52.786 61.6211 52.7275 61.7876 52.6691 61.9541C52.6186 62.0998 52.5674 62.2448 52.5162 62.3897C52.4737 62.5122 52.4305 62.6339 52.3881 62.7564C52.3536 62.8532 52.3192 62.9509 52.2856 63.0486C52.26 63.1198 52.2351 63.1911 52.2103 63.2623L52.1639 63.3944C52.1583 63.4097 52.1535 63.4241 52.1479 63.4393C51.6371 64.7563 50.5795 65.3888 49.5418 65.344C49.541 65.344 49.541 65.344 49.5402 65.344C49.521 65.3464 49.5018 65.3472 49.4834 65.348H69.844C69.8288 65.2951 69.8136 65.2423 69.7976 65.1902Z" fill="#AA0016"/>
<path d="M85.6981 40.7457C85.5236 40.1172 85.3515 39.4879 85.1849 38.857C85.0472 38.3382 84.8863 37.837 84.6061 37.3751C84.3323 36.9227 83.96 36.5312 83.4956 36.2726C83.3659 36.2006 83.2306 36.1389 83.0913 36.0893C82.8711 36.0116 82.498 35.9556 82.2651 35.9556H63.099C62.7643 35.9556 62.4777 36.0436 62.2463 36.1901C62.2439 36.1918 62.2415 36.1926 62.2399 36.1942C62.2279 36.2014 62.2151 36.2086 62.2039 36.2166C62.0982 36.2886 62.0061 36.3735 61.926 36.4688C61.9188 36.4768 61.914 36.4864 61.9068 36.4952C61.85 36.5656 61.8003 36.6417 61.7595 36.7218C61.5866 37.0572 61.5457 37.4663 61.6674 37.8747L64.9292 48.8328L69.5936 64.501L69.8266 65.2848L70.7129 68.372C70.7705 68.5361 71.2397 69.8107 72.5319 70.2134C73.1668 70.4112 73.7248 70.3135 74.0098 70.2406C74.0523 70.2302 74.1059 70.2158 74.1668 70.1966C74.1716 70.195 74.1764 70.1934 74.1804 70.1918C74.1884 70.1894 74.1964 70.187 74.2044 70.1846C74.2148 70.1806 74.2244 70.1774 74.2348 70.1742C74.3061 70.1494 74.4894 70.0813 74.7048 69.9492C74.7929 69.8964 74.8689 69.8411 74.9378 69.7883C75.0771 69.6794 75.1804 69.5769 75.2572 69.4985C75.3085 69.4464 75.3589 69.392 75.4093 69.3335C75.471 69.2615 75.5334 69.1838 75.5959 69.0982C75.9626 68.597 76.1619 68.0886 76.2028 67.9821C76.4349 67.3808 76.6263 66.7964 76.7936 66.2832C76.8857 66.0021 76.9697 65.7419 77.0498 65.5138L77.6527 63.7868C77.9049 63.0639 78.1579 62.3401 78.4101 61.6163C78.7015 60.7829 78.9929 59.9494 79.2835 59.116C79.5998 58.2113 79.9152 57.3066 80.2315 56.4011C80.5589 55.4635 80.8864 54.5252 81.2146 53.5869L82.1922 50.7879L83.1233 48.1194C83.406 47.3108 83.6878 46.503 83.9696 45.6951C84.2106 45.0074 84.4508 44.3197 84.691 43.6319C84.8751 43.1027 85.06 42.5735 85.245 42.0435C85.3379 41.7793 85.4291 41.5159 85.522 41.2517C85.546 41.1828 85.57 41.114 85.5941 41.0451C85.6285 40.9458 85.6637 40.8458 85.6981 40.7465C85.6981 40.7457 85.6981 40.7457 85.6981 40.7457Z" fill="#FFCD00"/>
</svg>
