<svg width="270" height="120" viewBox="0 0 270 120" fill="none" xmlns="http://www.w3.org/2000/svg">
<rect width="270" height="120" fill="#FFCC25" />
<g clip-path="url(#clip0_472_32)">
<path
            d="M62.0003 20H86.3018V20.8598C86.3018 34.9598 86.2113 49.0629 86.36 63.1629C86.4214 69.1979 89.1399 73.9043 94.6997 76.6745C96.0276 77.3429 97.479 77.7302 98.9633 77.8123C106.443 78.2132 112.708 73.9011 114.317 66.1335C114.721 64.1015 114.923 62.0345 114.919 59.9628C114.97 46.936 114.945 33.9092 114.945 20.8825V20H140.028C140.06 20.1697 140.081 20.3414 140.09 20.514C140.09 35.8875 140.083 51.2599 140.07 66.6313C140.07 71.8323 139.217 76.8943 137.016 81.659C133.783 88.6378 128.362 93.2247 121.316 96.0272C116.79 97.8244 112.052 98.7198 107.213 99.1336C102.878 99.5247 98.5171 99.5247 94.1825 99.1336C87.2909 98.4871 80.7065 96.8385 74.8783 92.9111C68.1839 88.3857 64.347 81.9984 62.7405 74.1629C62.2197 71.5014 61.9716 68.7937 62.0003 66.0818C62.0132 51.0229 62.0132 35.9672 62.0003 20.9148V20Z"
            fill="#F7000C"
        />
<path
            d="M193.561 40.177C194.097 39.8795 194.553 39.4556 194.889 38.9422C195.305 38.3339 195.52 37.6103 195.503 36.8734C195.535 35.891 195.188 34.934 194.534 34.2002C194.2 33.8358 193.791 33.5493 193.335 33.361C192.878 33.1728 192.386 33.0874 191.893 33.1109H187.594C187.55 33.1043 187.505 33.1082 187.463 33.1221C187.42 33.136 187.382 33.1596 187.351 33.1911C187.319 33.2225 187.295 33.2609 187.282 33.3031C187.268 33.3453 187.264 33.3901 187.27 33.4341V43.8587C187.264 43.9027 187.268 43.9476 187.282 43.9898C187.295 44.032 187.319 44.0704 187.351 44.1018C187.382 44.1332 187.42 44.1568 187.463 44.1708C187.505 44.1847 187.55 44.1885 187.594 44.182H189.856C189.9 44.1885 189.945 44.1847 189.987 44.1708C190.03 44.1568 190.068 44.1332 190.099 44.1018C190.131 44.0704 190.154 44.032 190.168 43.9898C190.182 43.9476 190.186 43.9027 190.18 43.8587V40.6489H190.59L192.504 43.8587C192.554 43.957 192.632 44.0392 192.726 44.0963C192.821 44.1533 192.93 44.183 193.04 44.182H195.571C195.807 44.182 195.856 44.0721 195.746 43.8587L193.561 40.177ZM191.156 35.7324C192.125 35.7324 192.594 36.1138 192.594 36.8734C192.594 37.6331 192.122 38.0274 191.156 38.0274H190.186V35.7324H191.156ZM179.554 33.1109C179.511 33.1043 179.466 33.1082 179.423 33.1221C179.381 33.136 179.343 33.1596 179.311 33.1911C179.28 33.2225 179.256 33.2609 179.242 33.3031C179.229 33.3453 179.225 33.3901 179.231 33.4341V43.8587C179.225 43.9027 179.229 43.9476 179.242 43.9898C179.256 44.032 179.28 44.0704 179.311 44.1018C179.343 44.1332 179.381 44.1568 179.423 44.1708C179.466 44.1847 179.511 44.1885 179.554 44.182H185.987C186.031 44.1885 186.076 44.1847 186.118 44.1708C186.16 44.1568 186.199 44.1332 186.23 44.1018C186.262 44.0704 186.285 44.032 186.299 43.9898C186.313 43.9476 186.317 43.9027 186.31 43.8587V41.6575C186.318 41.6134 186.314 41.5682 186.301 41.5256C186.287 41.4831 186.263 41.4444 186.232 41.4128C186.2 41.3812 186.161 41.3576 186.119 41.3439C186.076 41.3303 186.031 41.3269 185.987 41.3342H182.14V40.0186H185.399C185.443 40.0251 185.488 40.0213 185.53 40.0074C185.572 39.9934 185.61 39.9698 185.642 39.9384C185.673 39.907 185.697 39.8686 185.711 39.8264C185.725 39.7842 185.729 39.7393 185.722 39.6954V37.5846C185.729 37.5405 185.726 37.4953 185.712 37.4527C185.699 37.4102 185.675 37.3715 185.643 37.3399C185.612 37.3083 185.573 37.2847 185.531 37.2711C185.488 37.2574 185.443 37.254 185.399 37.2613H182.14V35.9392H185.951C186.037 35.9392 186.119 35.9052 186.18 35.8446C186.241 35.784 186.275 35.7017 186.275 35.616V33.4179C186.281 33.374 186.277 33.3291 186.264 33.2869C186.25 33.2447 186.226 33.2063 186.195 33.1749C186.163 33.1435 186.125 33.1199 186.083 33.1059C186.04 33.092 185.995 33.0881 185.951 33.0947L179.554 33.1109ZM172.941 38.0403V35.7324H173.911C174.859 35.7324 175.333 36.1127 175.333 36.8734C175.333 37.646 174.858 38.0403 173.911 38.0403H172.941ZM172.618 44.182C172.662 44.1885 172.706 44.1847 172.749 44.1708C172.791 44.1568 172.829 44.1332 172.861 44.1018C172.892 44.0704 172.916 44.032 172.93 43.9898C172.944 43.9476 172.947 43.9027 172.941 43.8587V40.6489H174.635C175.119 40.6589 175.599 40.5621 176.042 40.3655C176.484 40.1688 176.878 39.8771 177.195 39.5111C177.868 38.7984 178.242 37.8541 178.239 36.8734C178.266 35.8917 177.919 34.9364 177.269 34.2002C176.939 33.8375 176.533 33.5519 176.08 33.3637C175.627 33.1754 175.138 33.0891 174.648 33.1109H170.348C170.305 33.1043 170.26 33.1082 170.217 33.1221C170.175 33.136 170.137 33.1596 170.105 33.1911C170.074 33.2225 170.05 33.2609 170.036 33.3031C170.023 33.3453 170.019 33.3901 170.025 33.4341V43.8587C170.019 43.9027 170.023 43.9476 170.036 43.9898C170.05 44.032 170.074 44.0704 170.105 44.1018C170.137 44.1332 170.175 44.1568 170.217 44.1708C170.26 44.1847 170.305 44.1885 170.348 44.182H172.618ZM159.491 33.1109C159.284 33.1109 159.19 33.2208 159.19 33.4341V39.7794C159.163 40.3898 159.264 40.9991 159.487 41.5681C159.71 42.137 160.049 42.6531 160.483 43.083C161.429 43.8916 162.633 44.3359 163.877 44.3359C165.122 44.3359 166.325 43.8916 167.271 43.083C167.704 42.6546 168.042 42.1406 168.265 41.574C168.487 41.0074 168.589 40.4006 168.564 39.7923V33.4244C168.571 33.3803 168.568 33.3351 168.554 33.2926C168.541 33.25 168.517 33.2114 168.486 33.1798C168.454 33.1482 168.415 33.1246 168.373 33.1109C168.33 33.0972 168.285 33.0939 168.241 33.1012H165.978C165.934 33.0939 165.889 33.0972 165.846 33.1109C165.804 33.1246 165.765 33.1482 165.734 33.1798C165.702 33.2114 165.678 33.25 165.665 33.2926C165.651 33.3351 165.648 33.3803 165.655 33.4244V39.2266C165.655 40.7621 165.054 41.5185 163.867 41.5185C162.681 41.5185 162.067 40.7621 162.067 39.2266V33.4244C162.074 33.3803 162.071 33.3351 162.057 33.2926C162.044 33.25 162.02 33.2114 161.988 33.1798C161.957 33.1482 161.918 33.1246 161.876 33.1109C161.833 33.0972 161.788 33.0939 161.744 33.1012L159.491 33.1109ZM157.609 34.2778C157.719 34.1065 157.674 33.9545 157.499 33.8382C156.609 33.2633 155.573 32.956 154.513 32.9525C153.515 32.9241 152.542 33.2608 151.775 33.8996C151.425 34.1863 151.145 34.549 150.956 34.9601C150.767 35.3712 150.675 35.8199 150.685 36.2722C150.667 36.8468 150.806 37.4155 151.088 37.9169C151.369 38.4182 151.782 38.8331 152.282 39.1167C152.709 39.339 153.147 39.5396 153.595 39.718C154.48 40.0412 155.192 40.413 155.192 40.9043C155.192 41.2825 154.868 41.5508 154.241 41.5508C153.491 41.4969 152.773 41.2275 152.172 40.775C152.137 40.7438 152.094 40.7209 152.048 40.7079C152.003 40.6949 151.955 40.6921 151.908 40.6999C151.861 40.7076 151.816 40.7256 151.777 40.7525C151.738 40.7795 151.705 40.8147 151.681 40.8558L150.527 42.5787C150.503 42.6156 150.486 42.6572 150.479 42.7007C150.471 42.7443 150.472 42.789 150.483 42.832C150.493 42.8751 150.512 42.9155 150.538 42.9509C150.565 42.9863 150.599 43.0158 150.637 43.0377C151.652 43.8411 152.899 44.2947 154.193 44.3307C157.005 44.3307 158.097 42.3233 158.097 40.8687C158.097 37.1385 153.591 37.4229 153.591 36.2366C153.591 35.9134 153.915 35.713 154.367 35.713C154.907 35.7517 155.429 35.9263 155.883 36.2205C156.119 36.3304 156.278 36.3142 156.375 36.1429L157.609 34.2778Z"
            fill="#5E2B7A"
        />
<path
            d="M173.52 57.1247C174.058 56.83 174.515 56.4056 174.848 55.8899C175.265 55.2819 175.481 54.5583 175.465 53.8211C175.495 52.839 175.148 51.8826 174.496 51.1479C174.162 50.7841 173.752 50.4981 173.295 50.3104C172.838 50.1228 172.345 50.0379 171.852 50.0618H167.569C167.525 50.0553 167.48 50.0591 167.438 50.073C167.395 50.087 167.357 50.1106 167.326 50.142C167.294 50.1734 167.27 50.2118 167.257 50.254C167.243 50.2962 167.239 50.3411 167.245 50.3851V60.8162C167.239 60.8601 167.243 60.905 167.257 60.9472C167.27 60.9894 167.294 61.0278 167.326 61.0592C167.357 61.0906 167.395 61.1142 167.438 61.1282C167.48 61.1421 167.525 61.146 167.569 61.1394H169.831C169.875 61.146 169.92 61.1421 169.962 61.1282C170.005 61.1142 170.043 61.0906 170.074 61.0592C170.106 61.0278 170.129 60.9894 170.143 60.9472C170.157 60.905 170.161 60.8601 170.155 60.8162V57.6096H170.565L172.479 60.8162C172.529 60.9146 172.606 60.997 172.701 61.0542C172.796 61.1113 172.905 61.1408 173.015 61.1394H175.543C175.782 61.1394 175.827 61.0295 175.718 60.8162L173.52 57.1247ZM171.118 52.6833C172.088 52.6833 172.556 53.0615 172.556 53.8211C172.556 54.5808 172.081 54.9751 171.118 54.9751H170.148V52.6833H171.118ZM159.523 50.0618C159.479 50.0553 159.434 50.0591 159.392 50.073C159.35 50.087 159.311 50.1106 159.28 50.142C159.249 50.1734 159.225 50.2118 159.211 50.254C159.197 50.2962 159.193 50.3411 159.2 50.3851V60.8162C159.193 60.8601 159.197 60.905 159.211 60.9472C159.225 60.9894 159.249 61.0278 159.28 61.0592C159.311 61.0906 159.35 61.1142 159.392 61.1282C159.434 61.1421 159.479 61.146 159.523 61.1394H165.956C166 61.146 166.044 61.1421 166.087 61.1282C166.129 61.1142 166.167 61.0906 166.199 61.0592C166.23 61.0278 166.254 60.9894 166.268 60.9472C166.282 60.905 166.285 60.8601 166.279 60.8162V58.6213C166.285 58.5774 166.282 58.5325 166.268 58.4903C166.254 58.4481 166.23 58.4097 166.199 58.3783C166.167 58.3469 166.129 58.3232 166.087 58.3093C166.044 58.2954 166 58.2915 165.956 58.2981H162.115V56.9696H165.371C165.414 56.9761 165.459 56.9722 165.502 56.9583C165.544 56.9444 165.582 56.9208 165.614 56.8893C165.645 56.8579 165.669 56.8196 165.683 56.7774C165.696 56.7351 165.7 56.6903 165.694 56.6463V54.5291C165.7 54.4851 165.696 54.4402 165.683 54.398C165.669 54.3558 165.645 54.3174 165.614 54.286C165.582 54.2546 165.544 54.231 165.502 54.217C165.459 54.2031 165.414 54.1993 165.371 54.2058H162.115V52.8773H165.923C166.009 52.8773 166.091 52.8432 166.152 52.7826C166.212 52.722 166.246 52.6398 166.246 52.554V50.3851C166.253 50.3411 166.249 50.2962 166.235 50.254C166.221 50.2118 166.198 50.1734 166.166 50.142C166.135 50.1106 166.096 50.087 166.054 50.073C166.012 50.0591 165.967 50.0553 165.923 50.0618H159.523ZM157.609 51.232C157.636 51.197 157.654 51.1567 157.662 51.1139C157.671 51.071 157.67 51.0268 157.66 50.9844C157.649 50.942 157.629 50.9025 157.602 50.8687C157.574 50.8349 157.539 50.8077 157.499 50.7891C156.609 50.2143 155.573 49.9069 154.513 49.9034C153.517 49.872 152.545 50.2028 151.775 50.8344C151.425 51.1214 151.146 51.4842 150.957 51.8952C150.768 52.3062 150.675 52.7548 150.685 53.207C150.666 53.7817 150.805 54.3507 151.087 54.8522C151.368 55.3537 151.782 55.7684 152.282 56.0515C152.708 56.2806 153.147 56.4867 153.595 56.6689C154.48 56.9922 155.192 57.3639 155.192 57.8552C155.192 58.2334 154.868 58.5179 154.241 58.5179C153.492 58.4637 152.774 58.1956 152.172 57.7453C152.137 57.714 152.095 57.6909 152.049 57.6776C152.003 57.6644 151.955 57.6614 151.909 57.6688C151.862 57.6762 151.817 57.6938 151.778 57.7205C151.738 57.7471 151.705 57.7821 151.681 57.8229L150.527 59.5458C150.503 59.5827 150.486 59.6243 150.479 59.6679C150.471 59.7114 150.472 59.7561 150.483 59.7991C150.493 59.8422 150.512 59.8826 150.538 59.918C150.565 59.9534 150.599 59.9829 150.637 60.0048C151.652 60.8082 152.899 61.2618 154.193 61.2978C157.005 61.2978 158.097 59.2904 158.097 57.8358C158.097 54.1056 153.591 54.3901 153.591 53.2037C153.591 52.8805 153.915 52.6833 154.367 52.6833C154.907 52.7219 155.428 52.8953 155.883 53.1876C156.119 53.2975 156.278 53.2846 156.375 53.11L157.609 51.232Z"
            fill="#5E2B7A"
        />
<path
            d="M189.808 50.0585H187.533C187.358 50.0585 187.216 50.2003 187.216 50.3753V60.8064C187.216 60.9813 187.358 61.1231 187.533 61.1231H189.808C189.983 61.1231 190.125 60.9813 190.125 60.8064V50.3753C190.125 50.2003 189.983 50.0585 189.808 50.0585Z"
            fill="#5E2B7A"
        />
<path
            d="M201.251 50.0618C201.207 50.0552 201.162 50.0591 201.12 50.073C201.077 50.0869 201.039 50.1106 201.008 50.142C200.976 50.1734 200.953 50.2118 200.939 50.254C200.925 50.2962 200.921 50.3411 200.927 50.385V60.8161C200.921 60.8601 200.925 60.905 200.939 60.9472C200.953 60.9894 200.976 61.0277 201.008 61.0592C201.039 61.0906 201.077 61.1142 201.12 61.1281C201.162 61.1421 201.207 61.1459 201.251 61.1394H207.686C207.731 61.1466 207.776 61.1433 207.818 61.1296C207.861 61.116 207.899 61.0923 207.931 61.0608C207.963 61.0292 207.986 60.9905 208 60.9479C208.014 60.9054 208.017 60.8602 208.01 60.8161V58.6213C208.017 58.5772 208.014 58.532 208 58.4895C207.986 58.4469 207.963 58.4083 207.931 58.3767C207.899 58.3451 207.861 58.3215 207.818 58.3078C207.776 58.2941 207.731 58.2908 207.686 58.298H203.843V56.9695H207.101C207.145 56.9768 207.191 56.9734 207.233 56.9598C207.276 56.9461 207.314 56.9225 207.346 56.8909C207.378 56.8593 207.401 56.8206 207.415 56.7781C207.429 56.7355 207.432 56.6904 207.425 56.6463V54.529C207.432 54.4849 207.429 54.4397 207.415 54.3972C207.401 54.3547 207.378 54.316 207.346 54.2844C207.314 54.2528 207.276 54.2292 207.233 54.2155C207.191 54.2018 207.145 54.1985 207.101 54.2058H203.843V52.8772H207.654C207.74 52.8772 207.822 52.8432 207.883 52.7826C207.943 52.7219 207.977 52.6397 207.977 52.554V50.385C207.984 50.3411 207.98 50.2962 207.966 50.254C207.952 50.2118 207.929 50.1734 207.897 50.142C207.866 50.1106 207.827 50.0869 207.785 50.073C207.743 50.0591 207.698 50.0552 207.654 50.0618H201.251ZM199.654 51.1834C199.683 51.1494 199.703 51.1091 199.713 51.0657C199.723 51.0223 199.723 50.9771 199.712 50.9339C199.701 50.8906 199.681 50.8505 199.651 50.8169C199.622 50.7833 199.585 50.7572 199.544 50.7406C198.634 50.1893 197.589 49.8997 196.525 49.9034C195.773 49.8861 195.025 50.0216 194.327 50.3016C193.628 50.5816 192.994 51.0003 192.462 51.5324C191.931 52.0645 191.512 52.699 191.233 53.3974C190.953 54.0958 190.818 54.8436 190.836 55.5957C190.817 56.3465 190.951 57.0932 191.229 57.7909C191.506 58.4887 191.923 59.123 192.452 59.6557C192.984 60.1908 193.621 60.6105 194.323 60.8886C195.025 61.1667 195.777 61.2972 196.531 61.2719C197.615 61.2756 198.678 60.9743 199.599 60.4024C199.757 60.2925 199.79 60.1502 199.676 59.9434L198.455 58.1429C198.345 57.936 198.202 57.8908 198.012 58.033C197.575 58.3344 197.055 58.4895 196.525 58.4758C196.153 58.4819 195.783 58.4102 195.441 58.2655C195.098 58.1208 194.789 57.9062 194.534 57.6354C194.006 57.09 193.717 56.3576 193.729 55.599C193.721 55.225 193.788 54.8533 193.927 54.5058C194.065 54.1583 194.271 53.842 194.534 53.5754C194.785 53.2989 195.093 53.0794 195.436 52.9317C195.78 52.784 196.151 52.7114 196.525 52.7188C197.03 52.711 197.525 52.8552 197.947 53.1326C198.17 53.2587 198.345 53.2263 198.455 53.0195L199.654 51.1834Z"
            fill="#5E2B7A"
        />
<path
            d="M203.497 74.0724C204.034 73.7778 204.49 73.3546 204.823 72.8408C205.242 72.2325 205.458 71.5073 205.44 70.7688C205.47 69.7876 205.123 68.8321 204.47 68.0988C204.137 67.7338 203.728 67.4467 203.272 67.2579C202.815 67.0691 202.323 66.9831 201.829 67.0062H197.537C197.493 66.9997 197.448 67.0035 197.406 67.0175C197.363 67.0314 197.325 67.055 197.294 67.0864C197.262 67.1179 197.239 67.1562 197.225 67.1984C197.211 67.2406 197.207 67.2855 197.213 67.3295V77.7638C197.206 77.8079 197.21 77.8531 197.223 77.8956C197.237 77.9382 197.26 77.9768 197.292 78.0084C197.324 78.04 197.362 78.0637 197.405 78.0773C197.447 78.091 197.493 78.0943 197.537 78.0871H199.799C199.843 78.0943 199.889 78.091 199.931 78.0773C199.974 78.0637 200.012 78.04 200.044 78.0084C200.076 77.9768 200.099 77.9382 200.113 77.8956C200.127 77.8531 200.13 77.8079 200.123 77.7638V74.554H200.533L202.447 77.7638C202.498 77.8618 202.575 77.9438 202.67 78.0008C202.764 78.0579 202.873 78.0877 202.983 78.0871H205.521C205.757 78.0871 205.805 77.9772 205.692 77.7638L203.497 74.0724ZM201.092 69.631C202.062 69.631 202.531 70.0092 202.531 70.7688C202.531 71.5284 202.059 71.9228 201.092 71.9228H200.123V69.631H201.092ZM189.491 67.0062C189.447 66.9997 189.402 67.0035 189.36 67.0175C189.318 67.0314 189.28 67.055 189.248 67.0864C189.217 67.1179 189.193 67.1562 189.179 67.1984C189.165 67.2406 189.161 67.2855 189.168 67.3295V77.7638C189.161 77.8079 189.164 77.8531 189.178 77.8956C189.191 77.9382 189.215 77.9768 189.247 78.0084C189.278 78.04 189.317 78.0637 189.359 78.0773C189.402 78.091 189.447 78.0943 189.491 78.0871H195.924C195.968 78.0943 196.013 78.091 196.056 78.0773C196.098 78.0637 196.137 78.04 196.168 78.0084C196.2 77.9768 196.224 77.9382 196.237 77.8956C196.251 77.8531 196.254 77.8079 196.247 77.7638V75.5658C196.253 75.5218 196.25 75.4769 196.236 75.4347C196.222 75.3925 196.198 75.3541 196.167 75.3227C196.135 75.2913 196.097 75.2677 196.055 75.2537C196.013 75.2398 195.968 75.236 195.924 75.2425H192.084V73.914H195.342C195.386 73.9212 195.431 73.9179 195.474 73.9042C195.516 73.8906 195.555 73.867 195.586 73.8354C195.618 73.8038 195.642 73.7651 195.655 73.7225C195.669 73.68 195.672 73.6348 195.665 73.5907V71.4735C195.672 71.4294 195.669 71.3842 195.655 71.3417C195.642 71.2991 195.618 71.2604 195.586 71.2288C195.555 71.1973 195.516 71.1736 195.474 71.16C195.431 71.1463 195.386 71.143 195.342 71.1502H192.084V69.8217H195.895C195.98 69.8217 196.063 69.7876 196.123 69.727C196.184 69.6664 196.218 69.5842 196.218 69.4984V67.3004C196.225 67.2563 196.222 67.2111 196.208 67.1686C196.194 67.126 196.171 67.0874 196.139 67.0558C196.108 67.0242 196.069 67.0005 196.026 66.9869C195.984 66.9732 195.939 66.9699 195.895 66.9771L189.491 67.0062ZM185.156 78.0709C185.2 78.0782 185.246 78.0748 185.288 78.0612C185.331 78.0475 185.369 78.0239 185.401 77.9923C185.433 77.9607 185.456 77.922 185.47 77.8795C185.484 77.8369 185.487 77.7917 185.48 77.7477V69.8346H188.027C188.23 69.8346 188.327 69.7247 188.327 69.5114V67.3133C188.327 67.1064 188.23 66.9901 188.027 66.9901H180.007C179.963 66.9835 179.918 66.9874 179.876 67.0013C179.834 67.0152 179.796 67.0389 179.764 67.0703C179.733 67.1017 179.709 67.1401 179.695 67.1823C179.681 67.2245 179.677 67.2694 179.684 67.3133V69.5114C179.677 69.5555 179.68 69.6007 179.694 69.6432C179.707 69.6857 179.731 69.7244 179.762 69.756C179.794 69.7876 179.833 69.8112 179.875 69.8249C179.918 69.8386 179.963 69.8419 180.007 69.8346H182.551V77.7574C182.545 77.8013 182.548 77.8462 182.562 77.8884C182.576 77.9306 182.6 77.969 182.631 78.0004C182.663 78.0318 182.701 78.0554 182.743 78.0694C182.785 78.0833 182.83 78.0871 182.874 78.0806L185.156 78.0709ZM178.52 78.0709C178.564 78.0774 178.609 78.0736 178.651 78.0597C178.693 78.0457 178.732 78.0221 178.763 77.9907C178.795 77.9593 178.818 77.9209 178.832 77.8787C178.846 77.8365 178.85 77.7916 178.843 77.7477V67.323C178.85 67.279 178.846 67.2342 178.832 67.192C178.818 67.1498 178.795 67.1114 178.763 67.08C178.732 67.0486 178.693 67.0249 178.651 67.011C178.609 66.9971 178.564 66.9932 178.52 66.9998H176.257C176.214 66.9932 176.169 66.9971 176.126 67.011C176.084 67.0249 176.046 67.0486 176.014 67.08C175.983 67.1114 175.959 67.1498 175.945 67.192C175.932 67.2342 175.928 67.279 175.934 67.323V73.0606L171.771 67.323C171.716 67.2281 171.638 67.1486 171.544 67.0921C171.45 67.0355 171.344 67.0038 171.234 66.9998H168.926C168.882 66.9932 168.837 66.9971 168.795 67.011C168.753 67.0249 168.715 67.0486 168.683 67.08C168.652 67.1114 168.628 67.1498 168.614 67.192C168.6 67.2342 168.596 67.279 168.603 67.323V77.7574C168.596 77.8013 168.6 77.8462 168.614 77.8884C168.628 77.9306 168.652 77.969 168.683 78.0004C168.715 78.0318 168.753 78.0554 168.795 78.0694C168.837 78.0833 168.882 78.0871 168.926 78.0806H171.189C171.233 78.0879 171.278 78.0845 171.321 78.0709C171.363 78.0572 171.402 78.0336 171.434 78.002C171.465 77.9704 171.489 77.9317 171.503 77.8892C171.516 77.8466 171.52 77.8014 171.512 77.7574V72.0165L175.656 77.7574C175.713 77.8507 175.791 77.929 175.885 77.9853C175.978 78.0416 176.084 78.0743 176.193 78.0806L178.52 78.0709ZM160.881 67.0062C160.837 66.9997 160.792 67.0035 160.75 67.0175C160.707 67.0314 160.669 67.055 160.638 67.0864C160.606 67.1179 160.583 67.1562 160.569 67.1984C160.555 67.2406 160.551 67.2855 160.557 67.3295V77.7638C160.551 77.8078 160.555 77.8527 160.569 77.8949C160.583 77.9371 160.606 77.9754 160.638 78.0068C160.669 78.0383 160.707 78.0619 160.75 78.0758C160.792 78.0898 160.837 78.0936 160.881 78.0871H167.313C167.357 78.0943 167.403 78.091 167.445 78.0773C167.488 78.0637 167.526 78.04 167.558 78.0084C167.59 77.9768 167.613 77.9382 167.627 77.8956C167.64 77.8531 167.644 77.8079 167.637 77.7638V75.5658C167.643 75.5218 167.639 75.4769 167.625 75.4347C167.611 75.3925 167.588 75.3541 167.556 75.3227C167.525 75.2913 167.487 75.2677 167.444 75.2537C167.402 75.2398 167.357 75.236 167.313 75.2425H163.473V73.914H166.731C166.776 73.9212 166.821 73.9179 166.863 73.9042C166.906 73.8906 166.944 73.867 166.976 73.8354C167.008 73.8038 167.031 73.7651 167.045 73.7225C167.059 73.68 167.062 73.6348 167.055 73.5907V71.4735C167.062 71.4294 167.059 71.3842 167.045 71.3417C167.031 71.2991 167.008 71.2604 166.976 71.2288C166.944 71.1973 166.906 71.1736 166.863 71.16C166.821 71.1463 166.776 71.143 166.731 71.1502H163.473V69.8217H167.284C167.37 69.8217 167.452 69.7876 167.513 69.727C167.573 69.6664 167.607 69.5842 167.607 69.4984V67.3004C167.614 67.2564 167.61 67.2115 167.596 67.1693C167.582 67.1271 167.559 67.0888 167.527 67.0574C167.496 67.0259 167.457 67.0023 167.415 66.9884C167.373 66.9744 167.328 66.9706 167.284 66.9771L160.881 67.0062ZM159.297 68.1279C159.326 68.0939 159.346 68.0535 159.356 68.0102C159.366 67.9668 159.366 67.9216 159.355 67.8783C159.344 67.8351 159.324 67.795 159.294 67.7614C159.265 67.7278 159.228 67.7016 159.187 67.685C158.277 67.1338 157.232 66.8441 156.168 66.8478C155.416 66.8306 154.668 66.9661 153.97 67.2461C153.271 67.5261 152.637 67.9448 152.105 68.4769C151.574 69.009 151.155 69.6434 150.876 70.3418C150.596 71.0402 150.461 71.7881 150.479 72.5402C150.46 73.2914 150.594 74.0386 150.872 74.7368C151.15 75.4351 151.566 76.07 152.095 76.6034C152.627 77.1385 153.264 77.5582 153.966 77.8363C154.668 78.1144 155.42 78.2449 156.174 78.2196C157.258 78.2233 158.321 77.922 159.242 77.3501C159.4 77.2402 159.433 77.0979 159.319 76.8943L158.104 75.0744C157.994 74.8708 157.852 74.8223 157.661 74.9645C157.225 75.266 156.704 75.421 156.174 75.4074C155.802 75.414 155.433 75.343 155.09 75.1988C154.747 75.0547 154.438 74.8406 154.183 74.5702C153.656 74.0234 153.366 73.29 153.378 72.5305C153.371 72.1566 153.438 71.7849 153.576 71.4374C153.714 71.0898 153.921 70.7735 154.183 70.507C154.435 70.2315 154.743 70.013 155.087 69.8659C155.43 69.7187 155.801 69.6464 156.174 69.6536C156.679 69.6468 157.173 69.7897 157.597 70.0641C157.82 70.1902 157.994 70.1579 158.104 69.9542L159.297 68.1279Z"
            fill="#5E2B7A"
        />
<path
            d="M185.179 50.2718L185.037 50.2007C184.765 50.0608 184.469 49.9758 184.164 49.9506C183.86 49.9254 183.553 49.9605 183.262 50.0539C182.971 50.1472 182.702 50.2971 182.469 50.4948C182.236 50.6925 182.044 50.9341 181.905 51.206L181.096 52.777L180.288 51.206C180.149 50.9341 179.957 50.6925 179.724 50.4948C179.491 50.2971 179.222 50.1472 178.931 50.0539C178.64 49.9605 178.333 49.9254 178.029 49.9506C177.724 49.9758 177.428 50.0608 177.156 50.2007L177.011 50.2718C176.463 50.5548 176.049 51.0432 175.861 51.6303C175.673 52.2174 175.724 52.8552 176.005 53.4041L176.028 53.4493L181.093 61.2395L186.155 53.4493L186.178 53.4041C186.318 53.1328 186.403 52.8366 186.429 52.5324C186.455 52.2282 186.42 51.9219 186.327 51.631C186.235 51.3401 186.085 51.0704 185.888 50.8372C185.691 50.604 185.45 50.4119 185.179 50.2718V50.2718Z"
            fill="#F7000C"
        />
</g>
<defs>
<clipPath id="clip0_472_32">
<rect width="146" height="79.4213" fill="white" transform="translate(62 20)" />
</clipPath>
</defs>
</svg>
