<?xml version="1.0" encoding="utf-8"?>
<!-- Generator: Adobe Illustrator 24.1.0, SVG Export Plug-In . SVG Version: 6.00 Build 0)  -->
<svg version="1.1" id="Layer_1" xmlns="http://www.w3.org/2000/svg" xmlns:xlink="http://www.w3.org/1999/xlink" x="0px" y="0px"
	 viewBox="0 0 959.4 451.7" style="enable-background:new 0 0 959.4 451.7;" xml:space="preserve">
<style type="text/css">
	.st0{fill-rule:evenodd;clip-rule:evenodd;fill:#446CB3;}
	.st1{fill:#446CB3;}
	.st2{fill:#D24D57;}
</style>
<title>xendit_blue_logo</title>
<desc>Created with Sketch.</desc>
<g>
	<g id="xendit_logotype" transform="translate(197.378462, 28.200000)">
		<polygon id="Fill-1" class="st0" points="245.6,104.6 228.9,129.1 212,104.6 198.6,104.6 222,137.5 197.4,171.8 210.8,171.8 
			228.9,145.9 246.8,171.8 260.1,171.8 235.5,137.5 258.9,104.6 		"/>
		<path id="Fill-2" class="st0" d="M296.5,113.5c4.9,0,8.7,1.6,11.3,4.7c2.5,3,3.9,7.4,4,13h-32.5c0.6-5.4,2.4-9.7,5.2-12.8
			C287.4,115.1,291.5,113.5,296.5,113.5 M296.6,103.4c-9,0-16.3,3.2-21.6,9.6c-5.3,6.3-8,15-8,25.7c0,10.7,2.9,19.1,8.6,25.1
			c5.7,6,13.7,9.1,23.6,9.1c4.5,0,8.3-0.3,11.5-1c3.2-0.7,6.6-1.8,10.1-3.3l0.5-0.2v-10.7l-1.2,0.5c-6.8,2.9-13.7,4.4-20.6,4.4
			c-6.4,0-11.5-1.9-15-5.7c-3.4-3.7-5.3-9.1-5.6-16.1h45.1v-7.1c0-9-2.5-16.4-7.4-21.9C311.8,106.3,305,103.4,296.6,103.4"/>
		<path id="Fill-5" class="st0" d="M371.2,103.4c-4.6,0-8.9,0.9-12.6,2.7c-3.3,1.6-6.1,3.8-8.1,6.6l-1.5-8.2h-9.6v67.2H351v-35.2
			c0-8.3,1.5-14.3,4.6-17.8c3-3.5,7.9-5.3,14.4-5.3c4.9,0,8.5,1.2,10.8,3.7c2.3,2.5,3.4,6.3,3.4,11.4v43.2h11.6v-43.6
			c0-8.6-2.1-14.9-6.2-18.9C385.5,105.4,379.3,103.4,371.2,103.4"/>
		<path id="Fill-7" class="st0" d="M440.1,163c-5.7,0-9.9-2-12.8-6c-2.9-4.1-4.4-10.3-4.4-18.4c0-8,1.5-14.3,4.5-18.7
			c2.9-4.3,7.1-6.4,12.7-6.4c6.5,0,11.2,1.9,14.1,5.6c3,3.8,4.5,10.3,4.5,19.3v2.1c0,8-1.5,13.8-4.4,17.3
			C451.4,161.3,446.6,163,440.1,163L440.1,163z M458.6,104.7l0.2,4.6l0.3,3c-4.8-5.9-11.6-8.9-20.2-8.9c-8.8,0-15.7,3.1-20.6,9.3
			c-4.9,6.1-7.4,14.7-7.4,25.7c0,10.9,2.5,19.5,7.3,25.5c4.9,6,11.9,9.1,20.7,9.1c8.9,0,15.8-3.1,20.5-9.3l1.2,8.1h9.7V77.1h-11.6
			L458.6,104.7z"/>
		<path id="Fill-10" class="st0" d="M495.5,80.3c-1.9,0-3.5,0.6-4.8,1.8c-1.3,1.2-1.9,3.1-1.9,5.6c0,2.5,0.6,4.3,1.9,5.6
			c1.3,1.3,2.9,1.9,4.8,1.9c1.8,0,3.4-0.6,4.7-1.9c1.3-1.3,2-3.1,2-5.6c0-2.5-0.7-4.3-2-5.6C498.9,80.9,497.3,80.3,495.5,80.3"/>
		<polygon id="Fill-12" class="st0" points="489.6,171.8 501.2,171.8 501.2,104.6 489.6,104.6 		"/>
		<path id="Fill-14" class="st0" d="M551.3,162c-0.9,0.3-2.2,0.5-3.8,0.8c-1.6,0.2-3.2,0.4-5,0.4c-3,0-5.4-0.9-7.1-2.9
			c-1.7-1.9-2.6-4.8-2.6-8.5v-37.7h19v-9.4h-19V89.5h-7.2l-4.3,14.2l-9.5,4.2v6.2h9.4v38.1c0,13.8,6.7,20.9,19.9,20.9
			c1.7,0,3.6-0.2,5.8-0.5c2.2-0.4,3.8-0.8,5-1.4l0.5-0.2v-9.3L551.3,162z"/>
	</g>
	<g>
		<polygon class="st1" points="289.9,81.8 245.4,81.8 199.4,161.5 245.4,241.2 254.5,225.5 217.5,161.5 254.5,97.5 280.9,97.5 		"/>
		<polygon class="st2" points="258.5,135.9 267.6,120.3 254.5,97.5 245.4,113.2 		"/>
		<polygon class="st2" points="310.2,97.6 319.3,113.3 254.5,225.5 245.4,209.8 		"/>
		<polygon class="st1" points="274.7,241.2 283.8,225.4 310.2,225.4 347.1,161.5 310.2,97.6 319.3,81.8 365.2,161.5 319.3,241.2 		
			"/>
		<polygon class="st2" points="305.9,186.8 296.8,202.5 310.2,225.4 319.3,209.9 		"/>
	</g>
</g>
<g>
	<path class="st1" d="M123.1,348.2l-18-44.7h-0.3c0.2,2.7,0.3,5.5,0.3,8.4v36.3h-3.2v-48.4h5.2l17.2,42.6h0.2l17.2-42.6h5.1v48.4
		h-3.4v-36.7c0-2.6,0.1-5.2,0.4-7.9h-0.3l-18.1,44.6H123.1z"/>
	<path class="st1" d="M181.3,348.2l-0.8-5.7h-0.3c-1.8,2.3-3.7,4-5.6,4.9c-1.9,1-4.2,1.4-6.8,1.4c-3.5,0-6.3-0.9-8.2-2.7
		c-2-1.8-2.9-4.3-2.9-7.5c0-3.5,1.5-6.2,4.4-8.2c2.9-1.9,7.2-3,12.7-3.1l6.9-0.2v-2.4c0-3.4-0.7-6-2.1-7.7c-1.4-1.7-3.6-2.6-6.7-2.6
		c-3.3,0-6.8,0.9-10.4,2.8l-1.2-2.8c4-1.9,7.9-2.8,11.7-2.8c4,0,6.9,1,8.9,3.1c2,2.1,2.9,5.3,2.9,9.6v23.9H181.3z M168.1,345.9
		c3.8,0,6.9-1.1,9.1-3.3c2.2-2.2,3.3-5.2,3.3-9.2v-3.5l-6.3,0.3c-5.1,0.2-8.7,1-10.8,2.4c-2.2,1.3-3.2,3.4-3.2,6.2
		c0,2.3,0.7,4,2.1,5.2C163.6,345.2,165.6,345.9,168.1,345.9z"/>
	<path class="st1" d="M198.6,332.4l18.4-20.2h4l-14.2,15.4l15.4,20.6h-3.9L204.6,330l-5.9,5.4v12.8h-3.3v-51.5h3.3v25.8l-0.2,9.9
		H198.6z"/>
	<path class="st1" d="M227.8,302.2c0-2.1,0.7-3.2,2.1-3.2c0.7,0,1.2,0.3,1.6,0.8s0.6,1.3,0.6,2.4c0,1-0.2,1.8-0.6,2.4
		c-0.4,0.6-0.9,0.9-1.6,0.9C228.4,305.4,227.8,304.3,227.8,302.2z M231.5,348.2h-3.3v-36h3.3V348.2z"/>
	<path class="st1" d="M268.6,348.2v-23.3c0-3.6-0.8-6.3-2.3-7.9s-3.9-2.5-7.1-2.5c-4.3,0-7.5,1.1-9.5,3.3c-2,2.2-3,5.7-3,10.6v19.9
		h-3.3v-36h2.8l0.6,4.9h0.2c2.3-3.8,6.5-5.6,12.5-5.6c8.2,0,12.3,4.4,12.3,13.1v23.5H268.6z"/>
	<path class="st1" d="M311.6,312.2v2.3l-7.4,0.5c2,2.5,3,5.2,3,8.1c0,3.5-1.2,6.3-3.5,8.4c-2.3,2.2-5.4,3.2-9.3,3.2
		c-1.6,0-2.8-0.1-3.4-0.2c-1.3,0.7-2.3,1.5-3,2.4c-0.7,0.9-1,1.9-1,2.9c0,1.1,0.4,2,1.3,2.5c0.9,0.5,2.3,0.8,4.4,0.8h6.3
		c3.9,0,6.9,0.8,9,2.4c2.1,1.6,3.1,3.9,3.1,7c0,3.8-1.5,6.7-4.6,8.8c-3.1,2.1-7.5,3.1-13.2,3.1c-4.5,0-8-0.9-10.5-2.6
		c-2.5-1.7-3.7-4.2-3.7-7.3c0-2.5,0.8-4.5,2.3-6.2c1.5-1.6,3.6-2.7,6.2-3.3c-1.1-0.5-1.9-1.1-2.6-2c-0.7-0.8-1-1.8-1-2.9
		c0-2.4,1.5-4.5,4.6-6.4c-2.1-0.9-3.7-2.2-4.9-4.1c-1.2-1.8-1.8-4-1.8-6.3c0-3.6,1.1-6.5,3.4-8.7c2.3-2.2,5.4-3.3,9.3-3.3
		c2.4,0,4.2,0.2,5.5,0.7H311.6z M282.5,354.3c0,4.9,3.7,7.4,11,7.4c9.4,0,14.2-3,14.2-9c0-2.2-0.7-3.7-2.2-4.7
		c-1.5-1-3.9-1.5-7.2-1.5h-5.9C285.8,346.5,282.5,349.1,282.5,354.3z M285.2,323.4c0,2.8,0.8,4.9,2.5,6.5c1.7,1.5,3.9,2.3,6.8,2.3
		c3,0,5.3-0.8,6.9-2.3c1.6-1.5,2.4-3.7,2.4-6.6c0-3.1-0.8-5.4-2.5-6.9c-1.6-1.5-3.9-2.3-6.9-2.3c-2.9,0-5.1,0.8-6.8,2.5
		C286.1,318.2,285.2,320.5,285.2,323.4z"/>
	<path class="st1" d="M366.6,313.7c0,4.7-1.6,8.3-4.8,10.8s-7.7,3.7-13.5,3.7h-7.5v20h-3.4v-48.4h11.9
		C360.8,299.8,366.6,304.4,366.6,313.7z M340.8,325.3h6.7c5.5,0,9.4-0.9,11.8-2.7c2.4-1.8,3.6-4.7,3.6-8.8c0-3.7-1.1-6.5-3.4-8.3
		c-2.3-1.8-5.8-2.7-10.7-2.7h-8V325.3z"/>
	<path class="st1" d="M398.1,348.2l-0.8-5.7H397c-1.8,2.3-3.7,4-5.6,4.9c-1.9,1-4.2,1.4-6.8,1.4c-3.5,0-6.3-0.9-8.2-2.7
		c-2-1.8-2.9-4.3-2.9-7.5c0-3.5,1.5-6.2,4.4-8.2c2.9-1.9,7.2-3,12.7-3.1l6.9-0.2v-2.4c0-3.4-0.7-6-2.1-7.7c-1.4-1.7-3.6-2.6-6.7-2.6
		c-3.3,0-6.8,0.9-10.4,2.8l-1.2-2.8c4-1.9,7.9-2.8,11.7-2.8c4,0,6.9,1,8.9,3.1c2,2.1,2.9,5.3,2.9,9.6v23.9H398.1z M384.9,345.9
		c3.8,0,6.9-1.1,9.1-3.3c2.2-2.2,3.3-5.2,3.3-9.2v-3.5l-6.3,0.3c-5.1,0.2-8.7,1-10.8,2.4c-2.2,1.3-3.2,3.4-3.2,6.2
		c0,2.3,0.7,4,2.1,5.2C380.4,345.2,382.4,345.9,384.9,345.9z"/>
	<path class="st1" d="M406.2,312.2h3.4l7.6,20.2c2.3,6.2,3.8,10.4,4.4,12.5h0.2c0.9-2.8,2.4-7.1,4.5-12.7l7.6-20h3.4L421.2,354
		c-1.3,3.4-2.4,5.7-3.3,6.9c-0.9,1.2-1.9,2.1-3.1,2.7c-1.2,0.6-2.6,0.9-4.3,0.9c-1.3,0-2.7-0.2-4.2-0.7v-2.8
		c1.3,0.4,2.7,0.5,4.1,0.5c1.1,0,2.1-0.3,3-0.8c0.9-0.5,1.6-1.4,2.3-2.5c0.7-1.1,1.5-2.9,2.4-5.3s1.5-4,1.8-4.7L406.2,312.2z"/>
	<path class="st1" d="M488.3,348.2v-23.6c0-3.5-0.7-6.1-2.1-7.7s-3.5-2.4-6.3-2.4c-3.7,0-6.4,1-8.2,3c-1.8,2-2.6,5.2-2.6,9.6v21.1
		h-3.3v-24.6c0-6.1-2.8-9.1-8.3-9.1c-3.8,0-6.5,1.1-8.2,3.3s-2.6,5.7-2.6,10.5v19.9h-3.3v-36h2.7l0.7,4.9h0.2c1-1.8,2.4-3.2,4.2-4.2
		c1.8-1,3.9-1.5,6.1-1.5c5.7,0,9.3,2.1,10.9,6.4h0.1c1.2-2.1,2.7-3.6,4.7-4.7c2-1.1,4.2-1.7,6.7-1.7c3.9,0,6.9,1,8.8,3.1
		c2,2.1,2.9,5.4,2.9,10v23.5H488.3z"/>
	<path class="st1" d="M517.7,348.8c-5.2,0-9.3-1.6-12.2-4.8c-2.9-3.2-4.4-7.7-4.4-13.5c0-5.7,1.4-10.3,4.2-13.8
		c2.8-3.5,6.6-5.2,11.4-5.2c4.2,0,7.6,1.5,10,4.4c2.5,3,3.7,7,3.7,12.1v2.6h-25.9c0,4.9,1.2,8.7,3.5,11.3c2.3,2.6,5.5,3.9,9.7,3.9
		c2.1,0,3.9-0.1,5.4-0.4s3.5-0.9,5.9-1.9v3c-2,0.9-3.9,1.5-5.6,1.8C521.7,348.7,519.8,348.8,517.7,348.8z M516.8,314.4
		c-3.5,0-6.2,1.1-8.3,3.4c-2.1,2.3-3.3,5.6-3.7,9.9H527c0-4.2-0.9-7.4-2.7-9.8C522.5,315.6,520,314.4,516.8,314.4z"/>
	<path class="st1" d="M565.5,348.2v-23.3c0-3.6-0.8-6.3-2.3-7.9s-3.9-2.5-7.1-2.5c-4.3,0-7.5,1.1-9.5,3.3c-2,2.2-3,5.7-3,10.6v19.9
		h-3.3v-36h2.8l0.6,4.9h0.2c2.3-3.8,6.5-5.6,12.5-5.6c8.2,0,12.3,4.4,12.3,13.1v23.5H565.5z"/>
	<path class="st1" d="M589.9,345.9c2.1,0,3.9-0.2,5.4-0.5v2.6c-1.6,0.5-3.4,0.8-5.5,0.8c-3.2,0-5.5-0.8-7-2.5
		c-1.5-1.7-2.3-4.4-2.3-8V315h-5.3v-1.9l5.3-1.5l1.7-8.1h1.7v8.7h10.6v2.8h-10.6v22.8c0,2.8,0.5,4.8,1.5,6.1
		S587.8,345.9,589.9,345.9z"/>
	<path class="st1" d="M625.4,338.8c0,3.2-1.2,5.7-3.7,7.4c-2.5,1.7-5.9,2.6-10.4,2.6c-4.8,0-8.6-0.7-11.5-2.2v-3.5
		c3.6,1.8,7.4,2.7,11.5,2.7c3.6,0,6.3-0.6,8.1-1.8c1.8-1.2,2.8-2.8,2.8-4.7c0-1.8-0.7-3.3-2.2-4.6c-1.5-1.2-3.9-2.5-7.2-3.6
		c-3.6-1.3-6.1-2.4-7.6-3.4c-1.5-0.9-2.6-2-3.3-3.2c-0.7-1.2-1.1-2.6-1.1-4.3c0-2.7,1.1-4.8,3.4-6.4c2.3-1.6,5.4-2.4,9.5-2.4
		c3.9,0,7.6,0.7,11.1,2.2l-1.2,3c-3.5-1.5-6.8-2.2-9.8-2.2c-2.9,0-5.3,0.5-7,1.5c-1.7,1-2.6,2.3-2.6,4c0,1.9,0.7,3.4,2,4.5
		c1.3,1.1,3.9,2.4,7.8,3.8c3.2,1.2,5.6,2.2,7.1,3.2s2.6,2,3.3,3.2C625.1,335.8,625.4,337.2,625.4,338.8z"/>
	<path class="st1" d="M679.9,335.7c0,4-1.5,7.2-4.5,9.6c-3,2.4-6.9,3.5-11.8,3.5c-5.9,0-10.5-0.7-13.6-2v-3.4
		c3.5,1.5,7.9,2.2,13.3,2.2c4,0,7.1-0.9,9.5-2.7c2.3-1.8,3.5-4.2,3.5-7.2c0-1.8-0.4-3.3-1.2-4.6c-0.8-1.2-2-2.3-3.8-3.3
		c-1.7-1-4.3-2.1-7.7-3.2c-4.9-1.7-8.4-3.5-10.2-5.5s-2.8-4.6-2.8-7.9c0-3.6,1.4-6.6,4.3-8.9c2.8-2.3,6.5-3.4,10.9-3.4
		c4.5,0,8.8,0.9,12.8,2.6l-1.2,2.9c-4-1.7-7.9-2.5-11.5-2.5c-3.6,0-6.4,0.8-8.5,2.5c-2.1,1.7-3.2,3.9-3.2,6.8c0,1.8,0.3,3.3,1,4.4
		c0.7,1.1,1.7,2.2,3.2,3.1c1.5,0.9,4,2,7.6,3.3c3.8,1.3,6.6,2.6,8.5,3.8c1.9,1.2,3.3,2.6,4.2,4.2
		C679.4,331.6,679.9,333.5,679.9,335.7z"/>
	<path class="st1" d="M688.8,302.2c0-2.1,0.7-3.2,2.1-3.2c0.7,0,1.2,0.3,1.6,0.8s0.6,1.3,0.6,2.4c0,1-0.2,1.8-0.6,2.4
		c-0.4,0.6-0.9,0.9-1.6,0.9C689.5,305.4,688.8,304.3,688.8,302.2z M692.5,348.2h-3.3v-36h3.3V348.2z"/>
	<path class="st1" d="M749.6,348.2v-23.6c0-3.5-0.7-6.1-2.1-7.7c-1.4-1.6-3.5-2.4-6.3-2.4c-3.7,0-6.4,1-8.2,3
		c-1.8,2-2.6,5.2-2.6,9.6v21.1H727v-24.6c0-6.1-2.8-9.1-8.3-9.1c-3.8,0-6.5,1.1-8.2,3.3s-2.6,5.7-2.6,10.5v19.9h-3.3v-36h2.7
		l0.7,4.9h0.2c1-1.8,2.4-3.2,4.2-4.2c1.8-1,3.9-1.5,6.1-1.5c5.7,0,9.3,2.1,10.9,6.4h0.1c1.2-2.1,2.7-3.6,4.7-4.7
		c2-1.1,4.2-1.7,6.7-1.7c3.9,0,6.9,1,8.8,3.1c2,2.1,2.9,5.4,2.9,10v23.5H749.6z"/>
	<path class="st1" d="M779.9,348.8c-5.5,0-9.6-2.1-12.1-6.2h-0.2l0.1,2.8c0.1,1.6,0.1,3.4,0.1,5.4v13.7h-3.3v-52.3h2.8l0.6,5.1h0.2
		c2.5-3.9,6.4-5.8,11.9-5.8c4.9,0,8.6,1.6,11.1,4.8c2.5,3.2,3.8,7.8,3.8,13.9c0,5.9-1.3,10.5-4,13.8
		C788.1,347.2,784.5,348.8,779.9,348.8z M779.8,345.9c3.7,0,6.5-1.4,8.6-4.1c2-2.7,3-6.6,3-11.5c0-10.6-3.8-15.9-11.5-15.9
		c-4.2,0-7.3,1.2-9.2,3.5c-2,2.3-2.9,6.1-2.9,11.3v1.1c0,5.6,0.9,9.6,2.8,12.1C772.5,344.7,775.5,345.9,779.8,345.9z"/>
	<path class="st1" d="M808.1,348.2h-3.3v-51.5h3.3V348.2z"/>
	<path class="st1" d="M834.7,348.8c-5.2,0-9.3-1.6-12.2-4.8s-4.4-7.7-4.4-13.5c0-5.7,1.4-10.3,4.2-13.8c2.8-3.5,6.6-5.2,11.4-5.2
		c4.2,0,7.6,1.5,10,4.4c2.5,3,3.7,7,3.7,12.1v2.6h-25.9c0,4.9,1.2,8.7,3.5,11.3c2.3,2.6,5.5,3.9,9.7,3.9c2.1,0,3.9-0.1,5.4-0.4
		c1.6-0.3,3.5-0.9,5.9-1.9v3c-2,0.9-3.9,1.5-5.6,1.8C838.7,348.7,836.8,348.8,834.7,348.8z M833.7,314.4c-3.5,0-6.2,1.1-8.3,3.4
		s-3.3,5.6-3.7,9.9H844c0-4.2-0.9-7.4-2.7-9.8C839.4,315.6,836.9,314.4,833.7,314.4z"/>
</g>
</svg>
