<svg xmlns="http://www.w3.org/2000/svg" width="948" height="679" fill="none" viewBox="0 0 948 679">
  <path fill="url(#a)" d="M561.01 403.16c-.27-.65-.56-1.28-.85-1.93-.21-.48-.43-.96-.65-1.42a136.343 136.343 0 0 0-28.35-39.46c-10.12-9.78-13.27-9.55-21.81 1.8-4.39 5.9-8.8 11.81-13.2 17.71-11.21 15.05-22.45 30.1-33.67 45.15-6.67 8.93-13.32 17.87-19.97 26.8-6.63 8.99-7.31 8.99-14.61 0-7.55-9.19-15.03-18.45-22.6-27.61-2.22-2.71-4.47-5.41-6.73-8.11-5.72-6.74-9.43-6.64-14.83.1-3.71 4.5-7.08 9.33-10.56 14.04-7.31 9.9-7.31 12.36.34 21.81 1.96 2.42 3.93 4.82 5.89 7.24 9.15 11.25 18.31 22.49 27.45 33.71 6.42 7.86 12.83 15.71 19.24 23.55 9.66 11.8 12.47 11.8 21.34-.23 5.54-7.51 11.07-15.01 16.6-22.52 8.63-11.69 17.26-23.38 25.9-35.08 8.89-12.03 17.79-24.07 26.72-36.11 1.91-2.58 4.83-4.28 7.3-6.51 1.24 1.72 2.86 3.29 4.15 5 .83 1.07 1.52 2.2 1.93 3.42 10.96 33.54 7.36 64.42-11.86 90.98-.04.06-.09.13-.14.19-3.41 4.69-7.31 9.25-11.71 13.66-5.88 5.9-12.03 10.96-18.44 15.14-.06.04-.13.08-.21.13-18.31 11.92-38.66 16.82-60.35 14.53-8.5-.88-17.2-2.88-26.07-5.98-10.4-3.66-19.79-8.77-28.06-15.04-14.35-10.87-25.26-25.17-31.95-41.21-8.67-20.77-10.28-44.44-3.14-67.35 3.05-9.73 7.4-18.68 12.83-26.72a100.591 100.591 0 0 1 30.92-29.59c17.43-10.65 38.11-15.96 59.6-14.47 6.63.45 13.32 1.56 20.03 3.36 22.93 6.18 19.11 9.1 36.52-15.17.45-.45.67-1.01.9-1.58.87-3.02 2.47-4.83 4.59-5.76-11.68-6.54-24.43-11.41-37.96-14.38-.72-.03-1.52-.13-2.36-.31-2.22-.44-4.48-.96-6.74-1.4-.01 0-.03-.01-.05-.01-2.75-.54-5.5-.98-8.23-1.02-.8-.01-1.6.01-2.39.08-2.96.19-5.48-.03-7.65-.68-19.34-.56-37.97 2.78-55.03 9.47-1.86 1.33-4.59 2.07-6.65 3.01-55.96 26.29-89.11 84.38-77.42 149.44 1.91 10.74 4.99 20.93 9.1 30.48.27.66.57 1.3.87 1.96 11.94 26.68 31.94 48.17 56.87 62.08 11.68 6.54 24.43 11.41 37.96 14.37 2.91.65 5.84 1.2 8.81 1.65 2.88.45 5.79.83 8.73 1.1 2.31.22 4.64.39 6.99.49.94.05 1.89.08 2.83.1 19.37.57 38.01-2.76 55.09-9.46 33.36-13.06 60.74-38.91 75.79-73.57 15.25-35.56 14.24-75.55-1.05-109.9v.03Z"/>
  <path fill="#90137B" d="M585.88 146.64c-2.92 5.5-4.38 8.42-5.96 11.24-18.32 31.8-36.74 63.49-54.72 95.4a36.299 36.299 0 0 0-4.28 15.61c-.67 19.66-.79 39.44-.67 59.11.12 7.75-2.47 11.69-10.67 10.9-2.29-.21-4.35-.03-6.09.75-11.68-6.54-24.43-11.41-37.96-14.38 3.9.18 6.06-1.77 6.06-6.6.12-18.54.34-36.96 0-55.62-.12-3.93-2.58-8.09-4.6-11.8-17.65-31.46-35.4-62.82-53.04-94.28-1.58-2.92-2.82-5.96-5.17-10.79 18.09 0 33.81-.44 49.43.45 2.92.23 6.74 4.95 8.44 8.42 8.53 17.42 16.51 35.18 24.83 52.7 1.23 2.48 3.71 4.28 5.61 6.41 1.69-2.03 3.82-3.93 4.95-6.18 8.66-17.75 17.3-35.52 25.5-53.37 2.7-5.96 6.52-8.2 12.92-8.1 14.39.35 28.77.12 45.4.12l.02.01ZM427.45 309.91c-17.3-46.19-35.05-92.14-52.7-138.1-12.35-32.02-6.85-25.39-37.52-26.06-15.18-.35-15.28.1-20.79 14.04-20.57 52.13-41.12 104.26-61.81 156.41-8.42 21.34-10.89 21.24 13.94 21.12 25.72 0 25.84.12 35.39-23.37 2.14-5.28 5.17-7.75 11.02-7.64 18.19.22 36.51.44 54.72.22 12.92-.22 11.46 10.9 14.72 18.09 1.52 3.45.56 5.41-1.32 6.77 17.05-6.69 35.68-10.03 55.03-9.47-5.14-1.55-8.29-5.53-10.67-12.02l-.01.01Zm-70-43.71c-9.88.45-19.78.45-29.66 0-1.58-.12-4.72-3.94-4.38-5.17 5.62-16.86 11.8-33.6 17.87-50.35.1-.44 1.01-.56 3.71-2.02 5.84 17.87 11.46 34.95 16.63 52.25.45 1.24-2.58 5.28-4.16 5.28l-.01.01Zm474.62 103.26c12.25.11 13.26 1.57 8.76 12.7-15.06 36.52-30.23 72.92-45.17 109.33-8.2 20-16.29 39.89-24.16 60-2.7 6.97-6.85 10.34-14.61 10-36.41-1.8-27.3 6.18-40.68-28.09-3.48-8.99-7.08-17.87-10.67-26.85l-3.6.34C697 519.7 691.83 532.51 687 545.32c-5.84 15.17-6.18 15.73-22.81 15.39-26.74-.56-23.03 4.72-33.71-23.6-20.11-53.04-40.11-105.96-60.23-158.99-3.26-8.31-2.25-9.89 6.52-10 10.45-.11 21.01.45 31.46 0 7.98-.45 11.69 3.03 14.05 10.23 11.12 34.27 22.47 68.43 33.93 102.59.79 2.25 2.81 4.16 4.27 6.29 1.46-2.02 3.6-3.93 4.38-6.18 11.12-34.27 22.14-68.65 32.81-103.04 2.13-6.74 5.62-9.55 12.58-9.33 11.35.34 22.81.22 34.27.22 7.08-.11 9.55 2.47 6.85 9.66-6.52 17.53-13.26 35.17-18.88 53.04-1.69 5.39-1.35 12.02 0 17.64 2.47 10.11 6.29 19.89 9.78 29.78 1.12 3.15 2.7 6.07 5.17 11.69 2.81-6.29 4.94-10.11 6.4-14.16 12.02-32.7 24.05-65.28 35.73-98.09 2.47-7.08 6.52-9.55 13.71-9.21 9.55.45 19.21.11 28.77.22l.02-.01Zm-560.69-3.15c6.4-.22 9.66 2.02 9.66 8.99-.45 58.2-.79 116.41-1.01 174.61 0 5.73-2.36 8.54-8.31 8.43-11.35-.22-22.81-.45-34.27-.11-7.42.11-10.23-4.83-13.26-9.89-18.99-31.69-37.98-63.37-57.08-95.06-1.8-2.92-3.82-5.84-5.84-8.76l-2.58.45c-.45 3.37-1.35 6.63-1.35 9.89-.34 30.45-.79 61.01-.67 91.46 0 8.76-2.58 12.36-11.69 11.69-8.65-.67-17.3-.45-25.96-.22-6.52.11-9.55-2.58-9.55-9.33.45-57.98.79-115.85 1.01-173.71 0-6.74 2.92-9.33 9.55-9.1 11.12.34 22.25.45 33.37.11 7.08-.22 11.35 2.58 14.94 8.54 18.09 29.44 36.41 58.65 54.61 87.98 1.69 2.7 3.71 5.28 5.51 7.87l2.47-.45c.56-3.37 1.46-6.63 1.46-10 .34-27.42.79-54.83.79-82.25 0-8.31 2.81-11.8 11.35-11.24 8.88.56 17.87.34 26.85.11v-.01Zm-149.56-29.66c-7.87.34-10.11-3.03-9.78-10.56.34-28.65.11-57.31.11-85.96h.9c0-28.32.22-56.63-.11-84.95-.11-7.87 2.47-11.01 10.67-10.9 26.52.56 53.15.11 79.67.56 31.91.45 57.53 27.75 58.09 61.35.56 33.03-23.82 60.9-55.51 62.81-11.35.67-22.92.56-34.27.11-7.75-.22-10.45 2.92-10.34 10.34.22 15.62-.34 31.35-.22 47.08 0 7.42-2.7 10.67-10.45 10.23-9.55-.45-19.21-.56-28.77-.11h.01Zm62.81-106.97h5.51c8.88-.22 15.06-4.72 18.88-12.47 7.53-15.39-2.58-32.81-19.78-32.81-31.24 0-27.08-4.16-27.64 22.14 0 26.85-2.47 22.81 23.03 23.15v-.01Z"/>
  <defs>
    <linearGradient id="a" x1="296.69" x2="573" y1="459" y2="459" gradientUnits="userSpaceOnUse">
      <stop stop-color="#E83762"/>
      <stop offset="1" stop-color="#9A1F81"/>
    </linearGradient>
  </defs>
</svg>
