<?xml version="1.0" encoding="utf-8"?>
<!-- Generator: Adobe Illustrator 25.4.1, SVG Export Plug-In . SVG Version: 6.00 Build 0)  -->
<svg version="1.0" id="Layer_1" xmlns="http://www.w3.org/2000/svg" xmlns:xlink="http://www.w3.org/1999/xlink" x="0px" y="0px"
	 viewBox="0 0 211 141" style="enable-background:new 0 0 211 141;" xml:space="preserve">
<style type="text/css">
	.st0{fill:#123B62;}
	.st1{fill:#EE4138;}
</style>
<path id="Fill-2" class="st0" d="M61.1,67.3c1.1,0,2.3,0,3.4-0.2c0.6-0.1,1.2-0.5,1.6-1c0.4-0.6,0.7-1.3,0.8-2.1
	c0-0.2,0.1-0.3,0.3-0.3l0.9,0.1c0.2,0,0.3,0.1,0.3,0.3c-0.1,1.2-0.1,2.3-0.1,3.5c0,1.5,0.1,3.1,0.2,3.8c0,0.2-0.1,0.2-0.3,0.3
	l-0.8,0.2c-0.1,0-0.2,0-0.3-0.3c-0.2-0.6-0.4-1.2-0.7-1.7c-0.4-0.6-1.1-1.1-1.8-1.2c-1.1-0.1-2.3-0.2-3.4-0.2v2
	c0,1.8,0.2,5.1,0.2,5.7c0,1.7,0.4,2.3,0.8,2.6C63,79,64,79.1,64.9,79c0.6,0,2,0,2.7-0.1c0.9-0.1,1.8-0.5,2.6-1.1
	c1.2-1.1,2.4-2.3,3.4-3.6c0.1-0.1,0.2-0.2,0.3-0.1l0.6,0.3c0.1,0.1,0.2,0.2,0.1,0.3l-1.5,5.1c-0.1,0.3-0.4,0.5-0.7,0.5l-3-0.1
	c-2.2,0-5.7,0-11.6,0c-1.2,0-2.2,0-2.8,0s-1.1,0.1-1.4,0.1s-0.3-0.1-0.3-0.4v-0.7c0-0.2,0.1-0.3,0.3-0.3h1c1.5,0,1.7-0.2,1.7-1.4
	V66.2c0-2.8-0.1-6.9-0.1-7.2c-0.1-1.1-0.5-1.3-1.4-1.3h-1.3c-0.1,0-0.2-0.1-0.2-0.3v-0.8c0-0.1,0.1-0.2,0.2-0.2c0,0,0,0,0,0
	c0.7,0,1.9,0.1,5,0.1h11.8c0.5,0,1.2-0.1,1.3-0.1c0.1,0,0.2,0.1,0.3,0.2c0.1,0.5,1.2,5.1,1.4,5.4c0.1,0.2,0.1,0.2-0.1,0.3l-0.5,0.3
	c-0.1,0.1-0.3,0-0.4-0.1c-1.2-1.3-2.6-2.6-4-3.8c-0.8-0.5-1.6-0.8-2.6-0.9l-4.4-0.2L61.1,67.3z"/>
<path id="Fill-4" class="st0" d="M82.7,74.7c0,3.2,0.7,4.5,2.5,4.5c2.4,0,4.6-1.2,4.6-5.4c0-2.7-1.2-4.5-3-5.2
	c-1.3-0.4-2.7-0.6-4.1-0.6L82.7,74.7z M82.7,66.9c1.4,0.1,3.5-0.1,4.5-0.9c1.1-1,1.7-2.5,1.6-4c0.1-1.3-0.4-2.5-1.4-3.4
	c-0.9-0.7-2-1.1-3.2-1.2c-0.7,0-1.4,0-1.5,0.6s-0.1,3.6-0.1,6.4V66.9z M77.8,65.6c0-1.2-0.1-5.3-0.1-5.9c-0.1-2-0.6-2-1.8-2h-1.1
	c-0.2,0-0.2,0-0.2-0.3v-0.8c0-0.2,0-0.3,0.3-0.3c0.4,0,2.1,0.1,5.2,0.1c1.1,0,3.1-0.1,5.4-0.1s4.6,0.2,5.7,0.9
	c1.7,0.9,2.7,2.7,2.6,4.6c0,2.2-1.3,4.4-4.9,5.5v0.1c4.2,1.1,6.3,3.1,6.3,6.6c0,1.8-1,4.3-2.6,5.1c-1.4,0.7-3.7,1.2-7.9,1.2
	c-0.3,0-1.2-0.1-2.1-0.1s-2-0.1-2.7-0.1c-1.7,0-2.8,0-3.5,0s-1.1,0.1-1.3,0.1s-0.4-0.1-0.4-0.4v-0.7c0-0.2,0-0.3,0.3-0.3h1.2
	c1,0,1.2-0.4,1.3-1.4c0.1-0.8,0.2-5.2,0.2-7.9L77.8,65.6z"/>
<path id="Fill-6" class="st0" d="M97.8,59.4c0-1.2-0.2-1.7-0.9-1.7h-1.6c-0.2,0-0.2-0.1-0.2-0.3v-0.8c0-0.2,0-0.3,0.3-0.3
	s2,0.1,5.5,0.1c3,0,4.6-0.1,4.9-0.1s0.3,0.1,0.3,0.3v0.9c0,0.2,0,0.2-0.3,0.2h-1.1c-1.1,0-1.7,0.6-1.8,1.3c0,0.4-0.1,2.7-0.1,4.4
	v2.2c0,1.8,0.1,6,0.2,7.1c-0.1,1.4,0.3,2.8,1.1,4c1,1.2,2.6,1.9,4.2,1.9c1.5-0.1,2.9-0.6,4-1.5c1.5-1.4,2.2-3.4,2.1-5.5v-5.2
	c0-2.4-0.2-4.9-0.5-7.3c-0.1-0.9-0.7-1.5-1.2-1.5h-1.1c-0.2,0-0.2-0.1-0.2-0.3v-0.9c0-0.2,0-0.2,0.2-0.2s1.9,0.1,4.2,0.1
	c1.8,0,2.9-0.1,3.2-0.1s0.3,0.1,0.3,0.3v0.7c0,0.2,0,0.3-0.2,0.3h-1c-0.7-0.1-1.4,0.4-1.5,1.2c0,0.1,0,0.1,0,0.2
	c-0.1,0.5-0.1,5.1-0.1,5.6s-0.1,6.3-0.2,7.6c0,2.4-1.1,4.7-2.8,6.4c-1.7,1.4-3.8,2.1-5.9,2.1c-1.7,0-3.5-0.2-5.1-0.8
	c-1.8-0.9-3.2-2.5-3.8-4.4c-0.6-1.4-0.7-3.7-0.7-8.1L97.8,59.4z"/>
<path id="Fill-8" class="st0" d="M130.5,69.6c-0.3-1-2.3-8-2.5-8.9c-0.1-0.5-0.2-0.7-0.4-0.7s-0.3,0.1-0.4,0.4s-3.1,8.3-3.3,9.2
	L130.5,69.6z M123.5,71c-0.3,0.7-1.9,5.3-1.9,6.4c0,0.7,0.3,1.6,1.3,1.6h1.2c0.3,0,0.4,0.1,0.4,0.3v0.7c0,0.3,0,0.4-0.3,0.4
	c-0.4,0-1.8-0.1-4.6-0.1c-2.4,0-3.2,0.1-3.7,0.1c-0.2,0-0.2-0.2-0.2-0.4v-0.6c0-0.2,0-0.3,0.2-0.3h0.9c1-0.1,1.8-0.6,2.3-1.5
	c0.5-0.7,2.8-6.5,4-9.5c0.3-0.7,3-7.9,3.3-8.8c0.2-0.4,0.2-0.8,0-1.1c-0.1-0.1-0.2-0.3-0.2-0.4c0-0.1,0.1-0.2,0.3-0.3
	c1.4-0.3,2.6-0.9,3.8-1.7c0.2-0.2,0.3-0.3,0.4-0.3c0.2,0,0.3,0.2,0.4,0.6c0.6,2.1,3.3,9.6,3.9,11.8c0.8,2.6,3,8.8,3.4,9.8
	c0.3,0.8,1.1,1.4,1.9,1.5h1.1c0.2,0,0.2,0.1,0.2,0.3v0.6c0,0.2,0,0.4-0.3,0.4c-0.6,0-1.3-0.1-5.6-0.1c-2.8,0-4,0.1-4.6,0.1
	c-0.3,0-0.4-0.2-0.4-0.4v-0.6c0-0.2,0-0.3,0.2-0.3h0.9c0.9,0,1.2-0.3,1-1.2c-0.3-1.2-1.6-5.5-2-6.7H123.5z"/>
<path id="Fill-10" class="st0" d="M162.9,70.4c0-3,0-4.6-0.1-6.3c0-1.3-0.2-4.6-0.3-5.1c-0.2-0.8-1-1.3-1.8-1.3h-1.1
	c-0.2,0-0.2-0.1-0.2-0.3v-0.9c0-0.2,0-0.2,0.3-0.2s1.4,0.1,3.9,0.1c2,0,2.8-0.1,3.2-0.1s0.3,0.1,0.3,0.3v0.8c0,0.2,0,0.3-0.2,0.3
	h-0.9c-0.6,0-0.9,0.6-1,1.8c-0.2,2.2-0.8,9.8-0.8,14.2v5.7c0,0.5,0,1.1-0.5,1.1c-0.5,0-1-0.2-1.3-0.5c-0.6-0.5-2.2-2.3-4.2-4.7
	c-2.4-2.8-5.1-6.1-5.7-6.8s-5.2-6.4-6-7.5h-0.3v6.8c0,2.8,0.3,6.9,0.3,8.2c0.1,1.9,0.7,3,2.1,3h0.8c0.2,0,0.3,0.1,0.3,0.3V80
	c0,0.2,0,0.3-0.3,0.3s-2.4-0.1-3.9-0.1c-1,0-3.4,0.1-3.7,0.1c-0.1,0-0.2-0.1-0.2-0.3v-0.9c0-0.1,0.1-0.2,0.2-0.2c0,0,0,0,0,0h1.2
	c0.7,0,1.3-1.1,1.4-3.3c0-0.6,0.3-6,0.3-11v-3c0-2-1.2-3.8-2.9-3.9h-0.8c-0.2,0-0.2-0.1-0.2-0.2v-0.9c0-0.1,0-0.2,0.2-0.2
	s0.4,0,1.1,0s1.8,0.1,3.5,0.1c1.1,0,2.1-0.1,2.6-0.1c0.4,0,0.8,0.1,1,0.4l7.8,9.5c0.5,0.6,5.4,6.7,5.7,7.1h0.1L162.9,70.4z"/>
<path id="Fill-12" class="st0" d="M180.3,69.6c-0.3-1-2.3-8-2.5-8.9c-0.1-0.5-0.2-0.7-0.4-0.7s-0.3,0.1-0.4,0.4s-3.1,8.3-3.3,9.2
	L180.3,69.6z M173.2,71c-0.3,0.7-1.9,5.3-1.9,6.4c0,0.7,0.3,1.6,1.3,1.6h1.2c0.3,0,0.4,0.1,0.4,0.3v0.7c0,0.3,0,0.4-0.3,0.4
	c-0.4,0-1.8-0.1-4.6-0.1c-2.4,0-3.2,0.1-3.7,0.1c-0.2,0-0.2-0.2-0.2-0.4v-0.6c0-0.2,0-0.3,0.2-0.3h0.9c1-0.1,1.8-0.6,2.3-1.5
	c0.5-0.7,2.9-6.5,4-9.5c0.3-0.7,3-7.9,3.3-8.8c0.2-0.4,0.2-0.8,0-1.1c-0.1-0.1-0.2-0.3-0.2-0.4c0-0.1,0.1-0.2,0.3-0.3
	c1.4-0.3,2.6-0.9,3.8-1.7c0.2-0.2,0.3-0.3,0.4-0.3s0.3,0.2,0.4,0.6c0.6,2.1,3.2,9.6,3.9,11.8c0.8,2.6,3,8.8,3.4,9.8
	c0.3,0.8,1.1,1.4,1.9,1.5h1.1c0.2,0,0.2,0.1,0.2,0.3v0.6c0,0.2,0,0.4-0.3,0.4c-0.6,0-1.4-0.1-5.6-0.1c-2.8,0-4,0.1-4.6,0.1
	c-0.3,0-0.4-0.2-0.4-0.4v-0.6c0-0.2,0-0.3,0.2-0.3h0.9c0.9,0,1.2-0.3,1-1.2c-0.3-1.2-1.6-5.5-2-6.7H173.2z"/>
<path id="Fill-14" class="st1" d="M99.2,91.5c0,0.3,0,3.8,0,4.5h0.9c0.8,0,1.5,0,2.4-0.1s2-2,2.2-2.7c0-0.1,0.1-0.2,0.2-0.1l0.3,0.1
	c0.1,0,0.1,0,0,0.2s-0.7,2.8-0.8,3.3c-0.4,0-5.2,0-6.7,0s-2.2,0-2.4,0s-0.1,0-0.1-0.2v-0.4c0-0.1,0-0.1,0.1-0.1h0.5
	c0.6,0,0.7-0.2,0.7-0.4s0-4.4,0-5.4v-0.9c0-1,0-2.8,0-3c0-0.4-0.1-0.6-0.5-0.6h-0.6c-0.1,0-0.1-0.1-0.1-0.2v-0.4
	c0-0.1,0-0.1,0.1-0.1s0.8,0,2.3,0c1.9,0,2.6,0,2.8,0s0.2,0,0.2,0.2v0.3c0,0.1,0,0.1-0.2,0.1h-0.8c-0.5,0-0.6,0.2-0.6,0.6
	c0,0.2,0,2.7,0,3.8L99.2,91.5z"/>
<path id="Fill-16" class="st1" d="M107.6,90.1c0-1,0-3.2,0-3.4c0-0.8-0.1-1.1-0.6-1.1h-0.7c-0.2,0-0.2-0.1-0.2-0.2v-0.3
	c0-0.1,0-0.2,0.2-0.2s0.8,0,2.4,0s2.2,0,2.5,0s0.2,0,0.2,0.2v0.4c0,0.1,0,0.1-0.2,0.1h-0.4c-0.6,0-0.7,0.3-0.7,0.9
	c0,0.2-0.1,2.4-0.1,3.3v0.2c0,0.1,0,0.1,0.3,0.1h4.9c0.2,0,0.3,0,0.3-0.2v-0.2c0-0.9-0.1-3.2-0.1-3.4c0-0.5-0.1-0.8-0.4-0.8h-0.7
	c-0.2,0-0.2,0-0.2-0.2v-0.4c0-0.1,0-0.2,0.2-0.2c0.3,0,1,0,2.4,0s2,0,2.3,0s0.2,0,0.2,0.2v0.3c0,0.1,0,0.2-0.2,0.2h-0.6
	c-0.5,0-0.5,0.3-0.5,0.8c0,0.2,0,3,0,3.6v0.6c0,0.5,0,3.6,0,4.5c0,0.6,0.2,0.8,0.7,0.8h0.6c0.1,0,0.2,0,0.2,0.1v0.4
	c0,0.1,0,0.2-0.2,0.2s-0.8,0-2.3,0c-1.7,0-2.2,0-2.6,0c-0.2,0-0.2-0.1-0.2-0.2v-0.4c0-0.1,0-0.1,0.2-0.1h0.7c0.4,0,0.4-0.3,0.5-0.7
	c0-0.8,0.1-3.4,0.1-3.9v-0.2c0-0.2-0.2-0.2-0.4-0.2h-4.9c-0.2,0-0.2,0-0.2,0.2v0.2c0,0.4,0.1,2.9,0.1,4c0,0.4,0.2,0.6,0.5,0.6h0.5
	c0.1,0,0.2,0,0.2,0.1v0.4c0,0.1,0,0.2-0.2,0.2c-0.3,0-0.9,0-2.2,0c-1.7,0-2.2,0-2.6,0c-0.2,0-0.2,0-0.2-0.2v-0.3
	c0-0.1,0-0.1,0.2-0.1h0.8c0.4,0,0.5-0.4,0.5-0.8c0-0.8,0.1-3.9,0.1-4.4L107.6,90.1z"/>
<path id="Fill-18" class="st1" d="M121.7,86.5c0-0.6-0.1-0.8-0.4-0.8h-0.8c-0.1,0-0.1,0-0.1-0.1v-0.4c0-0.1,0-0.1,0.2-0.1s1,0,2.7,0
	c1.4,0,2.2,0,2.4,0s0.2,0,0.2,0.1v0.4c0,0.1,0,0.1-0.1,0.1h-0.6c-0.6,0-0.8,0.3-0.9,0.6s0,1.3,0,2.1v1.1c0,0.9,0.1,3,0.1,3.5
	c0,0.7,0.1,1.4,0.5,2c0.5,0.6,1.2,0.9,2,0.9c0.7,0,1.4-0.3,1.9-0.7c0.7-0.7,1.1-1.7,1-2.7V90c0-1.2-0.1-2.4-0.2-3.6
	c-0.1-0.4-0.3-0.7-0.6-0.7h-0.4c-0.1,0-0.1,0-0.1-0.1v-0.4c0-0.1,0-0.1,0.1-0.1s0.9,0,2,0c0.9,0,1.4,0,1.6,0s0.2,0.1,0.2,0.2v0.3
	c0,0.1,0,0.2-0.1,0.2h-0.5c-0.4,0-0.7,0.2-0.7,0.6c0,0,0,0,0,0.1c0,0.2,0,2.5,0,2.7s0,3.1-0.1,3.7c0,1.2-0.5,2.3-1.4,3.1
	c-0.8,0.7-1.9,1-2.9,1c-0.9,0-1.7-0.1-2.5-0.4c-0.9-0.4-1.6-1.2-1.9-2.2c-0.3-1.3-0.5-2.7-0.3-4L121.7,86.5z"/>
<path id="Fill-20" class="st1" d="M134.9,89.7c0-0.4,0-3.3-0.1-3.6c0-0.4-0.2-0.6-0.5-0.6h-0.8c-0.1,0-0.1,0-0.1-0.1V85
	c0-0.1,0.1-0.1,0.1-0.1c0.1,0,1,0,2.6,0s2.2,0,2.4,0s0.1,0,0.1,0.2v0.4c0,0.1-0.1,0.1-0.1,0.1h-0.5c-0.4,0-0.7,0.1-0.7,0.4
	s0,3.8,0,4v1.3c0,0.2,0,4,0,4.1c0,0.5,0.2,0.6,0.6,0.6h0.7c0.1,0,0.1,0,0.1,0.1v0.4c0,0.1-0.1,0.1-0.1,0.1s-0.9,0-2.4,0
	c-1.7,0-2.4,0-2.6,0s-0.1,0-0.1-0.1V96c0-0.1,0-0.1,0.1-0.1h0.5c0.3,0,0.7,0,0.7-0.4c0-0.2,0.1-3.8,0.1-4.7L134.9,89.7z"/>
<path id="Fill-22" class="st1" d="M144,91.5c0,0.3,0,3.8,0.1,4.5h0.9c0.8,0,1.5,0,2.4-0.1s2-2,2.2-2.7c0.1-0.1,0.1-0.2,0.2-0.1
	l0.3,0.1c0,0,0,0,0,0.2s-0.7,2.8-0.8,3.3c-0.4,0-5.1,0-6.7,0s-2.2,0-2.4,0s-0.1,0-0.1-0.2v-0.4c0-0.1,0-0.1,0.1-0.1h0.5
	c0.6,0,0.7-0.2,0.7-0.4s0.1-4.4,0.1-5.4v-0.9c0-1,0-2.8-0.1-3c0-0.4-0.1-0.6-0.5-0.6h-0.6c-0.1,0-0.1-0.1-0.1-0.2v-0.4
	c0-0.1,0-0.1,0.1-0.1s0.8,0,2.3,0c1.9,0,2.6,0,2.8,0s0.1,0,0.1,0.2v0.3c0,0.1,0,0.1-0.2,0.1h-0.8c-0.5,0-0.6,0.2-0.6,0.6
	c0,0.2-0.1,2.7-0.1,3.8L144,91.5z"/>
<path id="Fill-24" class="st1" d="M154.9,91.5c0,0.3,0,3.8,0.1,4.5h0.9c0.8,0,1.5,0,2.4-0.1s2-2,2.2-2.7c0.1-0.1,0.1-0.2,0.2-0.1
	l0.3,0.1c0.1,0,0.1,0,0,0.2s-0.7,2.8-0.8,3.3c-0.4,0-5.1,0-6.7,0s-2.2,0-2.4,0s-0.1,0-0.1-0.2v-0.4c0-0.1,0-0.1,0.1-0.1h0.5
	c0.6,0,0.7-0.2,0.7-0.4s0.1-4.4,0.1-5.4v-0.9c0-1,0-2.8-0.1-3c0-0.4-0.1-0.6-0.5-0.6h-0.6c-0.1,0-0.1-0.1-0.1-0.2v-0.4
	c0-0.1,0-0.1,0.1-0.1s0.8,0,2.3,0c1.9,0,2.6,0,2.8,0s0.1,0,0.1,0.2v0.3c0,0.1,0,0.1-0.2,0.1h-0.8c-0.5,0-0.6,0.2-0.6,0.6
	c0,0.2-0.1,2.7-0.1,3.8L154.9,91.5z"/>
<path id="Fill-26" class="st1" d="M163.5,89.7c0-0.4,0-3.3-0.1-3.6c0-0.4-0.2-0.6-0.5-0.6h-0.8c-0.1,0-0.1,0-0.1-0.1V85
	c0-0.1,0.1-0.1,0.1-0.1s1,0,2.6,0s2.2,0,2.4,0s0.1,0,0.1,0.2v0.4c0,0.1-0.1,0.1-0.1,0.1h-0.5c-0.4,0-0.7,0.1-0.7,0.4s-0.1,3.8-0.1,4
	v1.3c0,0.2,0.1,4,0.1,4.1c0,0.5,0.2,0.6,0.6,0.6h0.7c0.1,0,0.1,0,0.1,0.1v0.4c0,0.1,0,0.1-0.1,0.1s-0.9,0-2.4,0c-1.7,0-2.4,0-2.6,0
	s-0.1,0-0.1-0.1V96c0-0.1,0-0.1,0.1-0.1h0.5c0.3,0,0.7,0,0.7-0.4c0-0.2,0.1-3.8,0.1-4.7L163.5,89.7z"/>
<path id="Fill-28" class="st1" d="M172.7,90.3c0.6,0,1.1,0,1.7-0.1c0.3-0.1,0.6-0.3,0.8-0.5c0.2-0.3,0.3-0.6,0.4-1
	c0-0.1,0.1-0.1,0.1-0.1h0.4c0.1,0,0.1,0,0.1,0.1c0,0.6,0,1.1,0,1.7c0,0.7,0.1,1.5,0.1,1.9c0,0.1-0.1,0.1-0.1,0.1l-0.4,0.1
	c-0.1,0-0.1,0-0.1-0.1c-0.1-0.3-0.2-0.6-0.3-0.8c-0.2-0.3-0.5-0.5-0.9-0.6c-0.6-0.1-1.1-0.1-1.7-0.1v1c0,0.9,0.1,2.5,0.1,2.8
	c0,0.9,0.2,1.2,0.4,1.2c0.4,0.1,0.9,0.2,1.4,0.2c0.3,0,1,0,1.3,0c0.5-0.1,0.9-0.3,1.2-0.5c0.6-0.5,1.2-1.1,1.7-1.8
	c0.1-0.1,0.1-0.1,0.2,0l0.3,0.2c0.1,0,0.1,0.1,0.1,0.1l-0.7,2.5c0,0.2-0.2,0.3-0.4,0.2c-0.1,0-0.4,0-1.5,0s-2.8,0-5.6,0h-1.4H169
	c-0.1,0-0.1,0-0.1-0.2v-0.3c0-0.1,0-0.1,0.2-0.1h0.5c0.8,0,0.8-0.1,0.8-0.7v-5.5c0-1.4,0-3.4-0.1-3.5c-0.1-0.5-0.2-0.6-0.7-0.6h-0.6
	c-0.1,0-0.1,0-0.1-0.2v-0.4c0,0,0-0.1,0.1-0.1c0.4,0,0.9,0,2.4,0h5.8c0.3,0,0.6,0,0.6,0s0.1,0,0.1,0.1c0.1,0.2,0.6,2.5,0.7,2.6
	s0,0.1,0,0.2l-0.3,0.1c-0.1,0-0.2,0-0.2-0.1c-0.6-0.7-1.2-1.3-1.9-1.8c-0.4-0.3-0.8-0.4-1.2-0.4l-2.2-0.1L172.7,90.3z"/>
<path id="Fill-30" class="st1" d="M183.8,90.9c0.3,0,0.5,0,0.7,0c1.6-0.1,2.8-1.6,2.6-3.1c-0.1-0.6-0.3-1.1-0.6-1.5
	c-0.5-0.4-1.1-0.7-1.8-0.7c-0.2,0-0.4,0-0.6,0.2c-0.1,0.1-0.2,0.3-0.2,0.4L183.8,90.9z M181.5,89.1c0-1.2,0-2.3,0-2.7
	s-0.2-0.8-0.5-0.8h-0.7c-0.1,0-0.1,0-0.1-0.1v-0.4c0-0.1,0-0.1,0.1-0.1s0.7,0,2.4,0c0.9,0,2.4,0,3,0c1.1,0,2.1,0.4,2.9,1.1
	c0.5,0.4,0.9,1.1,0.9,1.8c0,1.7-1.3,3.1-3,3.1c0,0,0,0,0,0v0.1c0.4,0.2,0.8,0.5,1.1,0.9c0.2,0.3,1.1,1.7,1.2,1.9s1,1.4,1.3,1.8
	c0.4,0.2,0.8,0.4,1.2,0.3c0.1,0,0.1,0.1,0.1,0.1v0.4c0,0.1,0,0.2-0.1,0.2s-0.6,0-1.8,0c-0.5,0-1.1,0-1.6,0c-0.7-0.9-1.3-1.8-1.8-2.8
	c-0.6-1.1-1.2-2.3-2-2.3h-0.6v0.8c0,1,0.1,2.8,0.1,3s0.2,0.6,0.4,0.6h0.7c0.1,0,0.1,0,0.1,0.1v0.4c0,0.1,0,0.2-0.3,0.2
	c0,0-0.4,0-2.1,0s-2.1,0-2.3,0s-0.1,0-0.1-0.2v-0.4c0-0.1,0-0.1,0.1-0.1h0.5c0.4,0,0.6-0.1,0.6-0.5c0-1.6,0-3.2,0-4.7L181.5,89.1z"
	/>
<path id="Fill-32" class="st0" d="M51.3,75.9c0-0.6-0.5-1.1-1.1-1.1c-0.5,0-0.9,0.3-1.1,0.7c-4.1,6-12.3,7.6-18.4,3.5
	s-7.6-12.3-3.5-18.4s12.3-7.6,18.4-3.5c1.3,0.9,2.4,2,3.3,3.3l0,0c0.2,0.4,0.6,0.7,1,0.7c0.6,0,1.1-0.5,1.1-1.1c0-0.2,0-0.3-0.1-0.5
	l0,0c0-0.1-0.1-0.2-0.2-0.2c-4.9-8-15.3-10.6-23.3-5.7c-8,4.9-10.6,15.3-5.7,23.3s15.3,10.6,23.3,5.7c2.4-1.5,4.5-3.5,5.9-6
	C51.2,76.4,51.3,76.1,51.3,75.9"/>
<path id="Fill-34" class="st0" d="M43.5,48.1L43.5,48.1L43.5,48.1l-0.1-0.2c-2.9-4-8.4-4.9-12.4-2c-0.8,0.6-1.5,1.3-2,2
	c-0.1,0.1-0.1,0.1-0.1,0.2c0,0.1,0,0.1,0,0.2c0,0.3,0.2,0.5,0.5,0.5H43c0.3,0,0.5-0.2,0.5-0.5c0,0,0,0,0,0
	C43.5,48.3,43.5,48.3,43.5,48.1"/>
</svg>
