<?xml version="1.0" encoding="UTF-8" standalone="no"?>
<!-- Created with Inkscape (http://www.inkscape.org/) -->

<svg
   width="264.58334mm"
   height="69.900558mm"
   viewBox="0 0 264.58334 69.900553"
   version="1.1"
   id="svg3217"
   inkscape:version="1.3.2 (091e20e, 2023-11-25, custom)"
   sodipodi:docname="Robinsons Department Store 2013 alt stacked.svg"
   xmlns:inkscape="http://www.inkscape.org/namespaces/inkscape"
   xmlns:sodipodi="http://sodipodi.sourceforge.net/DTD/sodipodi-0.dtd"
   xmlns="http://www.w3.org/2000/svg"
   xmlns:svg="http://www.w3.org/2000/svg">
  <sodipodi:namedview
     id="namedview3219"
     pagecolor="#505050"
     bordercolor="#eeeeee"
     borderopacity="0"
     inkscape:showpageshadow="true"
     inkscape:pageopacity="0"
     inkscape:pagecheckerboard="false"
     inkscape:deskcolor="#d1d1d1"
     inkscape:document-units="mm"
     showgrid="false"
     inkscape:zoom="1.7074504"
     inkscape:cx="266.77203"
     inkscape:cy="55.931347"
     inkscape:window-width="1920"
     inkscape:window-height="991"
     inkscape:window-x="-9"
     inkscape:window-y="-9"
     inkscape:window-maximized="1"
     inkscape:current-layer="layer1" />
  <defs
     id="defs3214" />
  <g
     inkscape:label="Layer 1"
     inkscape:groupmode="layer"
     id="layer1"
     transform="translate(-149.21786,-183.25438)">
    <g
       id="g3"
       transform="matrix(1.5113417,0,0,1.5113417,24.757861,-472.73301)">
      <path
         id="path83"
         d="M 0,0 C 0,0.597 -0.058,1.115 -0.173,1.553 -0.286,1.982 -0.454,2.334 -0.677,2.61 -0.896,2.884 -1.159,3.088 -1.463,3.224 -1.77,3.361 -2.124,3.43 -2.524,3.43 -3.322,3.43 -3.942,3.157 -4.38,2.61 -4.601,2.334 -4.768,1.981 -4.88,1.552 -4.995,1.114 -5.053,0.596 -5.053,0 c 0,-0.577 0.058,-1.083 0.173,-1.515 0.113,-0.425 0.282,-0.781 0.505,-1.066 0.22,-0.281 0.483,-0.491 0.788,-0.631 0.308,-0.142 0.662,-0.212 1.063,-0.212 0.784,0 1.398,0.278 1.841,0.836 0.225,0.283 0.394,0.637 0.508,1.063 C -0.058,-1.091 0,-0.583 0,0 M 16.959,-4.942 H 14.96 v 9.889 h 1.999 z m -6.147,4.974 c 0,0.553 -0.045,1.037 -0.135,1.452 C 10.589,1.89 10.458,2.23 10.285,2.503 10.117,2.764 9.901,2.96 9.635,3.089 9.362,3.222 9.033,3.288 8.647,3.288 8.427,3.288 8.207,3.264 7.987,3.217 7.763,3.169 7.539,3.098 7.315,3.003 7.086,2.907 6.865,2.795 6.652,2.67 6.468,2.561 6.289,2.442 6.115,2.312 V -2.893 C 6.29,-2.97 6.455,-3.037 6.611,-3.094 6.797,-3.162 6.969,-3.215 7.127,-3.253 7.284,-3.291 7.45,-3.32 7.625,-3.338 c 0.174,-0.019 0.362,-0.028 0.562,-0.028 0.415,0 0.783,0.067 1.105,0.201 0.316,0.133 0.59,0.332 0.819,0.598 v -10e-4 c 0.23,0.269 0.404,0.616 0.521,1.042 0.12,0.437 0.18,0.957 0.18,1.558 m 2.049,0.043 c 0,-0.403 -0.029,-0.79 -0.088,-1.159 -0.058,-0.371 -0.145,-0.72 -0.26,-1.047 V -2.13 C 12.397,-2.46 12.261,-2.763 12.104,-3.04 11.947,-3.317 11.769,-3.569 11.57,-3.794 V -3.796 C 11.362,-4.028 11.142,-4.233 10.911,-4.408 10.68,-4.584 10.436,-4.731 10.18,-4.85 9.926,-4.968 9.66,-5.057 9.381,-5.116 9.102,-5.175 8.811,-5.205 8.509,-5.205 c -0.274,0 -0.535,0.017 -0.781,0.05 C 7.48,-5.121 7.25,-5.071 7.04,-5.004 6.832,-4.939 6.627,-4.862 6.423,-4.773 6.299,-4.72 6.175,-4.661 6.051,-4.599 L 6.008,-4.784 5.972,-4.942 H 4.116 V 8.678 H 6.115 V 4.163 c 0.126,0.093 0.252,0.179 0.381,0.26 0.245,0.156 0.498,0.294 0.757,0.416 0.265,0.123 0.547,0.216 0.846,0.278 0.298,0.062 0.61,0.094 0.937,0.094 0.59,0 1.12,-0.114 1.591,-0.343 0.471,-0.229 0.879,-0.571 1.223,-1.028 v 0 c 0.339,-0.452 0.593,-0.995 0.761,-1.627 0.166,-0.625 0.25,-1.338 0.25,-2.138 m 4.199,6.06 H 14.858 V 8.194 H 17.06 Z M 28.037,-4.942 h -1.999 v 5.603 c 0,0.211 -0.006,0.419 -0.02,0.624 -0.012,0.21 -0.03,0.404 -0.053,0.58 V 1.863 c -0.024,0.179 -0.058,0.338 -0.102,0.478 -0.041,0.132 -0.091,0.244 -0.15,0.337 l -0.002,0.004 c -0.06,0.101 -0.133,0.188 -0.218,0.262 -0.086,0.075 -0.187,0.138 -0.301,0.187 -0.118,0.051 -0.255,0.091 -0.411,0.116 -0.16,0.027 -0.34,0.041 -0.543,0.041 -0.202,0 -0.41,-0.025 -0.623,-0.075 C 23.4,3.162 23.179,3.086 22.954,2.984 l 10e-4,10e-4 C 22.727,2.881 22.501,2.762 22.278,2.627 22.083,2.51 21.893,2.381 21.709,2.243 v -7.185 h -2 v 9.889 h 2 V 4.109 c 0.147,0.109 0.297,0.211 0.448,0.306 0.264,0.165 0.535,0.309 0.814,0.431 0.279,0.121 0.561,0.213 0.846,0.273 0.288,0.062 0.578,0.092 0.87,0.092 0.538,0 1.013,-0.082 1.428,-0.245 C 26.536,4.8 26.891,4.55 27.182,4.217 V 4.216 c 0.288,-0.331 0.503,-0.732 0.645,-1.204 0.14,-0.464 0.21,-0.995 0.21,-1.595 z M 46.193,0 c 0,0.597 -0.058,1.115 -0.173,1.553 C 45.907,1.982 45.739,2.334 45.517,2.61 45.297,2.884 45.034,3.088 44.73,3.224 44.423,3.361 44.069,3.43 43.669,3.43 42.871,3.43 42.251,3.157 41.814,2.61 41.593,2.334 41.425,1.981 41.313,1.552 41.198,1.114 41.14,0.596 41.14,0 c 0,-0.577 0.058,-1.083 0.174,-1.515 0.112,-0.425 0.281,-0.781 0.504,-1.066 0.22,-0.281 0.483,-0.491 0.789,-0.631 0.307,-0.142 0.662,-0.212 1.062,-0.212 0.784,0 1.398,0.278 1.841,0.836 0.225,0.283 0.395,0.637 0.509,1.063 0.116,0.434 0.174,0.942 0.174,1.525 m 2.049,0 c 0,-0.794 -0.103,-1.507 -0.307,-2.137 -0.207,-0.637 -0.517,-1.19 -0.932,-1.657 -0.415,-0.47 -0.902,-0.823 -1.46,-1.059 -0.558,-0.235 -1.183,-0.352 -1.874,-0.352 -0.696,0 -1.323,0.117 -1.881,0.351 -0.56,0.236 -1.048,0.589 -1.462,1.06 h 10e-4 c -0.414,0.467 -0.724,1.019 -0.929,1.656 -0.205,0.631 -0.307,1.344 -0.307,2.138 0,0.792 0.102,1.504 0.307,2.136 0.205,0.638 0.515,1.192 0.928,1.661 0.414,0.471 0.902,0.824 1.464,1.061 0.558,0.235 1.185,0.353 1.879,0.353 0.691,0 1.315,-0.118 1.872,-0.353 0.559,-0.236 1.047,-0.59 1.462,-1.061 h 10e-4 C 47.418,3.327 47.728,2.774 47.935,2.137 48.139,1.505 48.242,0.793 48.242,0 m 10.395,-4.942 h -1.999 v 5.603 c 0,0.211 -0.007,0.419 -0.02,0.624 -0.013,0.21 -0.031,0.404 -0.054,0.58 V 1.863 C 56.54,2.042 56.506,2.201 56.463,2.341 56.421,2.473 56.371,2.585 56.313,2.678 L 56.31,2.682 C 56.25,2.783 56.178,2.87 56.092,2.944 56.006,3.019 55.906,3.082 55.792,3.131 55.674,3.182 55.537,3.222 55.381,3.247 55.22,3.274 55.04,3.288 54.838,3.288 54.635,3.288 54.427,3.263 54.215,3.213 53.999,3.162 53.779,3.086 53.553,2.984 l 0.002,10e-4 C 53.326,2.881 53.101,2.762 52.877,2.627 52.683,2.51 52.493,2.382 52.309,2.243 v -7.185 h -2 v 9.889 h 2 V 4.109 c 0.147,0.11 0.297,0.211 0.447,0.306 0.264,0.165 0.536,0.309 0.814,0.431 0.279,0.121 0.562,0.213 0.847,0.273 0.287,0.062 0.577,0.092 0.869,0.092 0.538,0 1.014,-0.082 1.428,-0.245 C 57.135,4.8 57.49,4.55 57.781,4.217 l 10e-4,-10e-4 c 0.287,-0.331 0.502,-0.732 0.645,-1.204 0.14,-0.464 0.21,-0.995 0.21,-1.595 z m 9.844,2.939 c 0,-0.465 -0.096,-0.889 -0.291,-1.274 C 67.997,-3.66 67.71,-4 67.329,-4.296 h -10e-4 c -0.378,-0.293 -0.824,-0.512 -1.337,-0.658 -0.507,-0.144 -1.08,-0.217 -1.717,-0.217 -0.355,0 -0.699,0.022 -1.033,0.066 -0.334,0.043 -0.652,0.107 -0.953,0.192 h -10e-4 c -0.293,0.084 -0.567,0.173 -0.821,0.269 -0.254,0.094 -0.482,0.193 -0.686,0.296 l -0.111,0.056 v 2.117 h 0.286 l 0.121,-0.041 c 0.242,-0.183 0.499,-0.348 0.772,-0.494 0.272,-0.147 0.557,-0.274 0.855,-0.382 0.298,-0.108 0.59,-0.189 0.875,-0.243 0.282,-0.053 0.559,-0.08 0.832,-0.08 0.666,0 1.181,0.104 1.546,0.312 0.166,0.094 0.289,0.214 0.369,0.359 0.082,0.147 0.122,0.326 0.122,0.535 0,0.163 -0.022,0.304 -0.067,0.422 -0.041,0.111 -0.104,0.203 -0.186,0.277 h -0.001 c -0.091,0.081 -0.229,0.158 -0.412,0.231 -0.199,0.079 -0.444,0.151 -0.736,0.216 h -0.002 c -0.101,0.023 -0.231,0.05 -0.386,0.081 -0.181,0.037 -0.336,0.067 -0.492,0.097 h 10e-4 c -0.179,0.033 -0.35,0.067 -0.514,0.104 -0.177,0.039 -0.343,0.079 -0.497,0.119 h -10e-4 c -0.432,0.115 -0.802,0.257 -1.112,0.427 -0.317,0.174 -0.572,0.378 -0.763,0.612 -0.19,0.235 -0.331,0.495 -0.426,0.78 -0.094,0.283 -0.14,0.591 -0.14,0.924 0,0.209 0.021,0.413 0.064,0.611 0.043,0.199 0.108,0.391 0.195,0.578 v 0.002 c 0.088,0.186 0.199,0.362 0.331,0.529 0.133,0.166 0.285,0.321 0.458,0.465 L 61.76,4.264 c 0.171,0.144 0.363,0.272 0.578,0.385 0.21,0.11 0.444,0.205 0.7,0.286 v 0 c 0.254,0.081 0.524,0.142 0.809,0.183 0.285,0.041 0.583,0.061 0.893,0.061 0.583,0 1.17,-0.071 1.767,-0.214 0.294,-0.07 0.565,-0.149 0.816,-0.237 0.251,-0.088 0.476,-0.182 0.675,-0.284 l 0.11,-0.056 V 2.354 h -0.286 l -0.119,0.04 c -0.195,0.143 -0.413,0.276 -0.654,0.399 -0.24,0.122 -0.499,0.234 -0.78,0.333 -0.283,0.1 -0.56,0.175 -0.833,0.224 -0.27,0.049 -0.541,0.074 -0.811,0.074 -0.28,0 -0.533,-0.026 -0.763,-0.079 C 63.635,3.294 63.43,3.216 63.245,3.114 63.076,3.02 62.95,2.905 62.868,2.769 62.787,2.635 62.747,2.476 62.747,2.293 c 0,-0.17 0.025,-0.316 0.075,-0.438 0.048,-0.115 0.12,-0.212 0.216,-0.291 h 0.001 c 0.103,-0.086 0.242,-0.166 0.417,-0.239 0.182,-0.076 0.4,-0.145 0.652,-0.204 H 64.107 C 64.255,1.088 64.41,1.055 64.572,1.022 64.727,0.99 64.901,0.956 65.09,0.92 v 0 c 0.169,-0.031 0.326,-0.062 0.472,-0.092 0.167,-0.034 0.315,-0.066 0.445,-0.095 v 0 c 0.388,-0.089 0.731,-0.211 1.03,-0.364 0.305,-0.155 0.566,-0.345 0.784,-0.567 l 0.001,-0.001 c 0.221,-0.232 0.387,-0.499 0.496,-0.803 0.109,-0.3 0.163,-0.634 0.163,-1.001 m -30.599,0 c 0,-0.465 -0.097,-0.889 -0.291,-1.274 C 37.398,-3.66 37.111,-4 36.729,-4.296 v 0 c -0.379,-0.293 -0.824,-0.512 -1.338,-0.658 -0.507,-0.144 -1.079,-0.217 -1.717,-0.217 -0.355,0 -0.699,0.022 -1.033,0.066 -0.334,0.043 -0.651,0.107 -0.953,0.192 v 0 c -0.294,0.084 -0.568,0.173 -0.822,0.269 -0.253,0.094 -0.482,0.193 -0.685,0.296 l -0.111,0.056 v 2.117 h 0.285 l 0.121,-0.041 c 0.242,-0.183 0.5,-0.348 0.772,-0.494 0.272,-0.147 0.557,-0.274 0.856,-0.382 0.298,-0.108 0.589,-0.189 0.874,-0.243 0.283,-0.053 0.56,-0.08 0.833,-0.08 0.665,0 1.18,0.104 1.546,0.312 0.165,0.094 0.288,0.214 0.369,0.359 0.081,0.147 0.121,0.326 0.121,0.535 0,0.163 -0.022,0.304 -0.067,0.422 -0.041,0.111 -0.103,0.203 -0.186,0.277 h -10e-4 c -0.091,0.081 -0.228,0.158 -0.411,0.231 -0.199,0.079 -0.445,0.151 -0.737,0.216 h -0.002 c -0.101,0.023 -0.231,0.05 -0.385,0.081 -0.181,0.037 -0.336,0.067 -0.493,0.097 h 0.001 c -0.178,0.033 -0.35,0.067 -0.514,0.104 -0.177,0.039 -0.342,0.079 -0.497,0.119 v 0 c -0.432,0.115 -0.803,0.257 -1.112,0.427 -0.318,0.174 -0.572,0.378 -0.763,0.612 -0.19,0.235 -0.332,0.495 -0.427,0.78 -0.093,0.283 -0.14,0.591 -0.14,0.924 0,0.209 0.022,0.413 0.065,0.611 0.043,0.199 0.108,0.391 0.194,0.578 l 0.001,10e-4 c 0.088,0.188 0.199,0.365 0.33,0.53 0.133,0.166 0.286,0.321 0.458,0.465 V 4.264 c 0.17,0.144 0.362,0.272 0.577,0.385 0.21,0.11 0.444,0.205 0.701,0.286 h -10e-4 c 0.254,0.081 0.524,0.142 0.81,0.183 0.284,0.041 0.583,0.061 0.893,0.061 0.583,0 1.169,-0.071 1.767,-0.214 0.293,-0.07 0.564,-0.149 0.815,-0.237 0.251,-0.088 0.476,-0.182 0.675,-0.284 l 0.11,-0.056 V 2.354 h -0.286 l -0.119,0.04 C 36.908,2.537 36.69,2.67 36.45,2.793 36.21,2.915 35.95,3.027 35.67,3.126 35.387,3.226 35.109,3.301 34.837,3.35 34.566,3.399 34.295,3.424 34.025,3.424 33.746,3.424 33.492,3.398 33.262,3.345 33.035,3.294 32.83,3.216 32.645,3.114 32.476,3.02 32.351,2.905 32.269,2.769 32.188,2.635 32.147,2.476 32.147,2.293 c 0,-0.17 0.025,-0.316 0.075,-0.438 0.048,-0.115 0.12,-0.212 0.216,-0.291 h 10e-4 c 0.103,-0.086 0.242,-0.166 0.417,-0.239 0.182,-0.076 0.4,-0.145 0.653,-0.204 H 33.507 C 33.655,1.088 33.81,1.055 33.972,1.022 34.128,0.99 34.301,0.956 34.491,0.92 H 34.49 c 0.169,-0.031 0.327,-0.062 0.473,-0.092 0.166,-0.034 0.315,-0.066 0.444,-0.095 h 0.001 c 0.387,-0.089 0.73,-0.211 1.029,-0.364 0.305,-0.155 0.567,-0.345 0.784,-0.567 l 0.002,-0.001 c 0.221,-0.232 0.386,-0.499 0.496,-0.803 0.109,-0.3 0.163,-0.634 0.163,-1.001 m -55.037,4.045 v 5.705 h 2.612 c 3.879,-0.317 3.642,-5.468 0,-5.705 0,0 -2.533,0 -2.612,0 m -2.375,-7.131 h 2.454 v 6.973 l 7.046,-7.052 h 3.087 l -5.7,5.863 c 5.001,1.538 3.893,9.106 -1.82,8.637 H -19.53 Z M 2.049,0 c 0,-0.794 -0.103,-1.507 -0.307,-2.137 -0.207,-0.638 -0.517,-1.19 -0.932,-1.657 -0.415,-0.47 -0.902,-0.823 -1.461,-1.059 -0.557,-0.235 -1.182,-0.352 -1.873,-0.352 -0.696,0 -1.324,0.117 -1.881,0.351 -0.56,0.236 -1.048,0.589 -1.462,1.06 h 0.001 C -6.28,-3.327 -6.59,-2.775 -6.796,-2.138 -7,-1.507 -7.102,-0.794 -7.102,0 c 0,0.792 0.102,1.504 0.306,2.136 0.206,0.638 0.516,1.192 0.929,1.661 0.414,0.471 0.902,0.824 1.463,1.061 0.558,0.235 1.186,0.353 1.88,0.353 0.691,0 1.315,-0.118 1.872,-0.353 C -0.093,4.622 0.394,4.268 0.81,3.797 H 0.811 C 1.224,3.327 1.534,2.774 1.741,2.137 1.946,1.505 2.049,0.793 2.049,0"
         style="fill:#d21f25;fill-opacity:1;fill-rule:nonzero;stroke:none"
         transform="matrix(1.3333333,0,0,-1.3333333,166.10787,451.0776)"
         clip-path="none" />
      <path
         id="path85"
         d="m 0,0 0.868,0.485 0.016,-1.57 H 2.15 V -1.807 H 0.903 v -2.217 c 0.009,-1.045 0.498,-1.123 1.235,-0.99 L 2.16,-5.704 C 1.681,-5.823 0.069,-6.139 0.049,-4.616 l -0.016,2.76 h -0.805 v 0.725 l 0.79,0.015 z m 4.705,-1.151 h 0.837 l 0.033,-0.806 c 0.706,1.287 2.271,1.09 2.429,0.066 1.189,1.676 2.723,0.592 2.583,-0.821 V -5.685 H 9.728 v 3.006 C 9.669,-1.337 8.201,-1.946 8.104,-3.381 L 8.087,-5.701 H 7.265 V -2.81 C 7.263,-1.68 6.055,-1.472 5.61,-3.349 V -5.767 H 4.754 Z m 13.874,-0.092 h 0.935 v -0.856 c 0.618,1.208 2.696,1.44 2.676,-0.701 l 0.032,-3.012 h -0.885 v 2.461 c 0,1.751 -1.253,1.853 -1.807,-0.207 l 0.016,-2.255 -0.904,-0.003 z m 6.256,1.211 0.868,0.485 0.016,-1.536 1.266,-0.016 v -0.74 h -1.247 v -2.217 c 0.009,-1.045 0.498,-1.123 1.235,-0.99 l 0.022,-0.69 c -0.479,-0.119 -2.091,-0.435 -2.111,1.088 l -0.016,2.761 h -0.805 v 0.762 l 0.79,-0.005 z m 13.288,-0.136 0.019,0.921 c -1.966,0.412 -3.363,0.037 -3.666,-1.287 -0.16,-0.928 0.519,-1.491 2.016,-2.324 1.509,-0.755 1.471,-2.163 -0.058,-2.228 -0.748,0.007 -1.337,0.18 -1.862,0.481 v -1.038 c 1.325,-0.345 2.444,-0.281 3.359,0.193 0.812,0.435 1.087,1.85 0.096,2.727 -0.327,0.29 -0.641,0.523 -1.039,0.756 l -1.015,0.608 c -0.665,0.461 -0.473,1.12 0.135,1.402 0.493,0.237 1.311,0.083 2.015,-0.211 m 2.664,0.136 0.868,0.485 0.017,-1.536 1.266,-0.016 v -0.74 H 41.69 v -2.217 c 0.01,-1.045 0.498,-1.123 1.236,-0.99 l 0.022,-0.69 c -0.48,-0.119 -2.091,-0.435 -2.111,1.088 l -0.017,2.761 h -0.804 v 0.762 l 0.789,-0.005 z m 10.365,-1.183 h 0.87 V -1.94 c 0.427,0.51 0.607,0.856 1.428,0.889 V -2.07 c -1.511,10e-4 -1.412,-1.33 -1.396,-2.02 l 0.017,-1.675 -0.837,-0.017 z m -79.233,1.141 h 0.924 c 1.363,0 1.502,-1.485 1.511,-2.437 -0.047,-1.214 -0.013,-2.559 -1.552,-2.606 l -0.883,-0.027 z m -1.008,0.784 v -6.611 h 1.763 c 1.637,0 2.738,0.863 2.75,3.312 -0.039,2.892 -1.226,3.299 -2.553,3.299 z m 7.152,-3.256 c 0.191,1.043 1.559,0.993 1.674,0 z m -0.082,-0.641 h 2.675 l -0.017,0.526 c -0.115,1.057 -0.738,1.571 -1.723,1.593 -1.297,-0.104 -1.642,-0.98 -1.773,-1.643 -0.088,-0.481 -0.114,-1.02 0.066,-1.576 0.466,-1.446 1.641,-1.895 3.381,-1.397 l -0.016,0.674 c -1.647,-0.499 -2.561,0.339 -2.593,1.823 m 7.623,-0.206 c -0.137,2.191 -1.878,2.037 -1.826,-0.033 -0.058,-2.256 1.87,-2.447 1.826,0.033 m -2.84,2.135 h 0.887 l 0.033,-0.529 c 1.263,1.443 2.449,0.092 2.609,-0.291 0.323,-0.614 0.431,-2.06 -0.066,-2.958 -0.396,-0.828 -1.646,-1.319 -2.527,-0.131 v -2.645 h -0.837 z m 8.496,-2.733 v 0 C -8.762,-3.992 -8.784,-3.992 -8.805,-3.993 -8.827,-3.994 -8.848,-3.995 -8.868,-3.997 -8.889,-3.998 -8.91,-4 -8.931,-4.001 c -0.021,-0.002 -0.04,-0.003 -0.06,-0.006 -0.02,-0.002 -0.04,-0.004 -0.059,-0.006 H -9.051 C -9.07,-4.016 -9.089,-4.018 -9.108,-4.021 -9.126,-4.024 -9.145,-4.027 -9.164,-4.03 -9.183,-4.033 -9.201,-4.036 -9.218,-4.04 -9.237,-4.043 -9.254,-4.047 -9.272,-4.051 -9.429,-4.084 -9.567,-4.131 -9.685,-4.187 -9.699,-4.193 -9.711,-4.2 -9.725,-4.207 -9.737,-4.213 -9.749,-4.219 -9.761,-4.226 -9.774,-4.233 -9.786,-4.24 -9.798,-4.246 v -10e-4 c -0.011,-0.006 -0.023,-0.013 -0.034,-0.021 -0.012,-0.007 -0.023,-0.013 -0.033,-0.021 -0.011,-0.007 -0.022,-0.015 -0.032,-0.022 -0.01,-0.008 -0.021,-0.015 -0.03,-0.023 -0.01,-0.007 -0.02,-0.015 -0.03,-0.023 -0.009,-0.008 -0.018,-0.015 -0.027,-0.024 -0.009,-0.008 -0.018,-0.016 -0.026,-0.024 -0.009,-0.008 -0.017,-0.016 -0.025,-0.024 -0.008,-0.008 -0.016,-0.016 -0.023,-0.025 v 0 c -0.008,-0.009 -0.015,-0.017 -0.022,-0.025 -0.008,-0.008 -0.014,-0.017 -0.021,-0.026 -0.006,-0.008 -0.013,-0.017 -0.019,-0.025 -0.007,-0.009 -0.012,-0.018 -0.018,-0.027 -0.006,-0.009 -0.011,-0.017 -0.017,-0.026 v 0 c -0.005,-0.009 -0.01,-0.018 -0.015,-0.027 -0.005,-0.008 -0.009,-0.017 -0.013,-0.026 -0.005,-0.009 -0.009,-0.018 -0.013,-0.027 -0.004,-0.009 -0.008,-0.018 -0.011,-0.027 -0.004,-0.009 -0.007,-0.018 -0.01,-0.027 -0.003,-0.009 -0.006,-0.018 -0.008,-0.027 v -0.001 c -0.003,-0.008 -0.005,-0.017 -0.007,-0.026 -0.002,-0.009 -0.004,-0.019 -0.006,-0.027 v -0.001 c -0.002,-0.009 -0.003,-0.018 -0.004,-0.027 -10e-4,-0.009 -0.003,-0.018 -0.003,-0.027 -0.001,-0.009 -0.002,-0.018 -0.002,-0.027 -10e-4,-0.009 -10e-4,-0.018 -10e-4,-0.027 10e-4,-0.018 0.002,-0.036 0.004,-0.053 10e-4,-0.009 0.002,-0.018 0.003,-0.027 0.002,-0.009 0.003,-0.017 0.005,-0.026 0.002,-0.009 0.004,-0.018 0.006,-0.026 0.028,-0.104 0.087,-0.2 0.177,-0.283 0.019,-0.018 0.041,-0.033 0.064,-0.046 0.006,-0.004 0.013,-0.007 0.019,-0.01 v 0 c 0.006,-0.003 0.013,-0.006 0.019,-0.008 0.006,-0.003 0.013,-0.006 0.02,-0.008 0.006,-0.003 0.013,-0.005 0.02,-0.007 h 10e-4 c 0.006,-0.003 0.013,-0.005 0.02,-0.006 0.007,-0.003 0.015,-0.004 0.022,-0.006 0.007,-0.002 0.015,-0.003 0.022,-0.004 0.008,-0.002 0.015,-0.003 0.023,-0.004 0.008,-10e-4 0.015,-0.002 0.023,-0.002 v -0.001 c 0.008,0 0.016,-10e-4 0.024,-0.002 0.008,0 0.016,0 0.025,-10e-4 h 0.024 c 0.009,0 0.017,10e-4 0.025,10e-4 0.008,0 0.017,0.001 0.025,0.002 0.009,0.001 0.017,0.001 0.026,0.002 0.009,10e-4 0.017,0.002 0.026,0.004 0.009,0.001 0.018,0.003 0.026,0.005 0.009,0.001 0.018,0.003 0.026,0.004 0.01,0.003 0.018,0.005 0.027,0.007 v 0 c 0.009,0.002 0.018,0.004 0.027,0.007 0.356,0.101 0.738,0.446 0.779,1.075 z m -2.347,1.365 c 0,0.416 0.279,1.424 1.674,1.396 1.165,0.055 1.592,-0.711 1.576,-1.511 v -3.154 h -0.854 v 0.446 c -0.991,-0.972 -2.476,-0.603 -2.509,0.676 -0.02,0.853 0.597,1.442 2.46,1.506 v 0.543 c 0.087,1.04 -1.368,1.062 -1.362,0.115 z m 24.802,0.081 c 0.192,1.043 1.559,0.994 1.674,0 z m -0.082,-0.641 h 2.675 l -0.016,0.526 c -0.115,1.057 -0.739,1.571 -1.724,1.593 -1.297,-0.104 -1.641,-0.98 -1.773,-1.642 -0.087,-0.482 -0.113,-1.021 0.066,-1.577 0.467,-1.445 1.642,-1.894 3.381,-1.397 l -0.016,0.674 c -1.647,-0.498 -2.561,0.339 -2.593,1.823 m 34.405,-0.303 c -0.011,2.238 -2.113,2.276 -2.073,0 0.039,-2.257 2.084,-2.274 2.073,0 m -1.046,2.401 c 1.41,0.031 2.054,-0.965 2.063,-2.401 0.01,-1.436 -0.732,-2.423 -2.063,-2.401 -1.331,0.023 -2.01,1.015 -2.044,2.401 -0.034,1.386 0.634,2.371 2.044,2.401 m 9.333,-1.506 c 0.191,1.044 1.559,0.994 1.674,0 z m -0.082,-0.64 h 2.675 l -0.016,0.525 c -0.115,1.057 -0.739,1.572 -1.724,1.593 -1.296,-0.104 -1.641,-0.979 -1.772,-1.642 -0.088,-0.482 -0.115,-1.021 0.065,-1.577 0.466,-1.445 1.641,-1.894 3.381,-1.396 l -0.016,0.673 c -1.647,-0.498 -2.561,0.34 -2.593,1.824 m -61.57,2 h 0.871 v -0.725 c 0.427,0.51 0.607,0.856 1.427,0.889 v -1.018 c -1.51,0 -1.411,-1.331 -1.395,-2.021 l 0.017,-1.676 -0.838,-0.016 z"
         style="fill:#d21f25;fill-opacity:1;fill-rule:nonzero;stroke:none"
         transform="matrix(1.3333333,0,0,-1.3333333,178.65493,467.332)"
         clip-path="none" />
      <path
         id="path87"
         d="m 0,0 v -0.007 h -17.609 c -3.598,0 -6.514,-2.919 -6.514,-6.517 v -21.649 c 0,-3.597 2.916,-6.515 6.514,-6.515 H 4.1 c 3.597,0 6.513,2.918 6.513,6.515 V -11.688 -6.524 0 Z"
         style="fill:#d21f25;fill-opacity:1;fill-rule:nonzero;stroke:none"
         transform="matrix(1.3333333,0,0,-1.3333333,114.51467,434.04307)"
         clip-path="none" />
      <path
         id="path91"
         d="m 0,0 c -1.927,0.72 -4.177,1.759 -5.79,3.026 -1.103,0.865 -2.019,2.159 -1.907,4.315 0.116,1.132 1.462,1.245 3.38,2.717 4.128,3.27 7.435,5.644 9.339,10.262 0.864,2.807 -0.314,4.607 -3.55,3.89 -2.829,-0.624 -5.548,-3.634 -7.088,-5.885 -0.871,-1.264 -1.682,-2.566 -2.328,-4.14 -1.459,-3.533 -1.997,-8.952 -0.872,-13.147 -1.881,-0.241 -3.788,0.246 -5.529,0.424 -0.742,10.104 2.577,17.714 8.293,22.23 1.509,1.19 3.469,2.283 5.359,2.68 3.13,0.656 6.335,-0.74 7.531,-2.593 C 9.17,20.133 6.421,14.954 4.403,12.63 2.361,10.553 -0.091,9.321 -3.285,8.032 -3.907,7.798 -5.609,7.377 -5.7,6.658 -5.811,5.853 -4.663,5.247 -3.973,5.091 -2.903,4.871 -1.139,4.764 -0.087,4.758 1.879,4.736 5.092,5.185 5.096,5.185 5.121,5.185 2.168,1.166 0,0"
         style="fill:#ffffff;fill-opacity:1;fill-rule:nonzero;stroke:none"
         transform="matrix(1.3333333,0,0,-1.3333333,109.98613,474.85893)"
         clip-path="none" />
    </g>
  </g>
</svg>
