<svg width="150" height="150" viewBox="0 0 150 150" fill="none" xmlns="http://www.w3.org/2000/svg">
<path fill-rule="evenodd" clip-rule="evenodd" d="M15.1442 55.5689H57.8676C60.7062 55.5689 63.0288 57.8914 63.0288 60.7301V90.6364C63.0288 93.4751 60.7062 95.7977 57.8676 95.7977H13.9112C11.0725 95.7977 8.75 93.4751 8.75 90.6364V53.7051C8.75 52.3574 9.86826 51.4399 11.1872 51.2678L50.5845 46.25C51.9322 46.25 53.0218 47.3396 53.0218 48.6872V52.8736H12.6783C12.6783 54.6226 13.1944 55.5975 15.1442 55.5975V55.5689ZM39.1152 88.3139C35.531 89.0021 30.9146 87.7978 28.3913 85.1025C27.2444 83.8982 29.0795 82.0344 30.2264 83.2674C31.9181 85.0738 34.9288 85.934 37.3948 85.8767C40.5202 85.8193 43.3302 82.952 41.5237 79.7692C39.0578 75.3535 32.979 76.5865 29.8823 73.1457C27.3591 70.3643 28.5633 65.9486 31.5167 63.9988C34.6134 61.963 39.9467 62.0491 42.47 64.9451C43.5595 66.2067 41.7244 68.0418 40.6349 66.7802C38.5704 64.4289 33.7246 64.7444 31.8895 67.1816C29.2515 70.6511 33.2084 72.5148 35.9611 73.3464C39.746 74.4933 43.9323 76.5865 44.6205 80.9162C45.1653 84.4143 42.47 87.6544 39.1152 88.3139Z" fill="#EE4E2C"/>
<path fill-rule="evenodd" clip-rule="evenodd" d="M39.0865 88.3421C35.5023 89.0303 30.8859 87.826 28.3626 85.1307C27.2157 83.9264 29.0508 82.0626 30.1977 83.2956C31.8895 85.102 34.9002 85.9622 37.3661 85.9049C40.4915 85.8475 43.3015 82.9802 41.4951 79.7974C39.0291 75.3817 32.9504 76.6147 29.8537 73.1739C27.3304 70.3925 28.5347 65.9768 31.488 64.027C34.5848 61.9912 39.918 62.0773 42.4413 64.9733C43.5309 66.2349 41.6958 68.07 40.6062 66.8084C38.5417 64.4572 33.6959 64.7726 31.8608 67.2098C29.2228 70.6793 33.1798 72.5431 35.9324 73.3746C39.7173 74.5215 43.9036 76.6147 44.6205 80.9444C45.1653 84.4425 42.47 87.6826 39.1152 88.3421H39.0865Z" fill="#FEFEFE"/>
<path d="M112.663 53.7343C111.143 53.7343 109.767 54.3937 108.82 55.3973V54.193C108.82 53.1034 107.1 53.1034 107.1 54.193V68.3003C107.1 69.3899 108.82 69.3899 108.82 68.3003V62.0209C109.767 63.0531 111.143 63.6839 112.663 63.6839C115.501 63.6839 117.795 61.4474 117.795 58.6948C117.795 55.9421 115.501 53.7056 112.663 53.7056V53.7343ZM112.663 61.9062C110.856 61.9062 109.365 60.4725 109.365 58.7234C109.365 57.1464 110.569 55.8274 112.118 55.5694H112.146C112.319 55.5407 112.462 55.5407 112.634 55.5407C113.982 55.5407 115.128 56.3149 115.645 57.4331C115.817 57.8345 115.931 58.2647 115.931 58.6948C115.931 60.4438 114.469 61.8775 112.663 61.8775V61.9062ZM99.9029 63.7126C97.0642 63.7126 94.7704 61.4761 94.7704 58.7234C94.7704 55.9708 97.0642 53.7343 99.9029 53.7343C102.742 53.7343 105.035 55.9708 105.035 58.7234C105.035 61.4761 102.742 63.7126 99.9029 63.7126ZM99.9029 55.5407C98.0965 55.5407 96.6055 56.9743 96.6055 58.7234C96.6055 60.4725 98.0678 61.9062 99.9029 61.9062C101.709 61.9062 103.2 60.4725 103.2 58.7234C103.2 56.9743 101.738 55.5407 99.9029 55.5407ZM141.25 58.6374C141.221 56.3435 139.988 54.279 137.494 53.8203C135.343 53.4188 132.82 54.5371 131.902 56.4869C130.956 58.5227 131.358 61.3327 133.221 62.7377C135.257 64.2861 138.44 63.7986 140.533 62.6517C141.508 62.1356 140.648 60.6732 139.644 61.1893C138.325 61.9062 136.576 62.2503 135.114 61.7915C133.996 61.4187 133.365 60.5012 133.193 59.4689H140.39C140.849 59.4689 141.25 59.0962 141.25 58.6374ZM133.25 57.8059C133.25 57.7485 133.279 57.6912 133.307 57.6338C133.709 56.2575 135.143 55.4833 136.576 55.426C138.211 55.3686 139.157 56.4869 139.444 57.8059H133.279H133.25ZM129.723 58.6661C129.695 56.3722 128.462 54.3077 125.967 53.8489C123.817 53.4475 121.293 54.5658 120.376 56.5156C119.43 58.5514 119.831 61.3614 121.695 62.7664C123.731 64.3147 126.913 63.8273 129.006 62.6804C129.981 62.1642 129.121 60.7019 128.118 61.218C126.799 61.9348 125.05 62.2789 123.587 61.8202C122.469 61.4474 121.867 60.5299 121.666 59.4976H128.863C129.322 59.4976 129.723 59.1249 129.723 58.6661ZM121.723 57.8345C121.723 57.7772 121.752 57.7199 121.781 57.6625C122.182 56.2862 123.616 55.512 125.05 55.4547C126.684 55.3973 127.63 56.5156 127.917 57.8345H121.752H121.723ZM92.7346 57.0604V62.8811C92.7346 63.9707 91.0141 63.9707 91.0141 62.8811V57.1751C90.9568 56.0568 89.9819 55.512 89.9532 55.512C88.7203 54.9672 86.4837 55.2253 85.1648 56.917V62.9097C85.1648 63.9993 83.4444 63.9993 83.4444 62.9097V47.9422C83.4444 46.8526 85.1648 46.8526 85.1648 47.9422V54.6805C87.2866 53.2755 89.9819 53.4188 91.2435 54.279C91.2435 54.279 92.7632 55.1106 92.7346 57.089V57.0604ZM80.577 48.6017C78.8853 46.7379 75.3298 46.6806 73.2653 47.9996C71.2868 49.2612 70.484 52.0712 72.1757 53.8776C74.2689 56.1141 78.3118 55.3113 79.9462 58.15C81.1218 60.1858 79.258 62.0209 77.1936 62.0782C75.5592 62.1069 73.552 61.5621 72.4051 60.3865C71.6309 59.6123 70.4266 60.7879 71.1721 61.5621C72.8352 63.3112 75.9319 64.0567 78.3405 63.6266C80.577 63.2252 82.3834 61.132 82.0107 58.8668C81.5519 56.0855 78.7419 54.7378 76.2187 53.9923C74.3836 53.4475 71.7456 52.2719 73.4947 50.0354C74.7276 48.487 77.9677 48.2863 79.3441 49.7773C80.0896 50.5802 81.2939 49.4046 80.577 48.6017Z" fill="#EE4E2C"/>
<path fill-rule="evenodd" clip-rule="evenodd" d="M125.709 104.486H120.204L126.082 93.3605L116.419 75.1242H122.383L129.064 87.7405L135.745 75.1242H141.25L125.709 104.486ZM70.9427 95.7977H75.5592V87.3677H81.7813C88.2328 87.3677 93.4514 82.8373 93.4514 77.2747C93.4514 71.712 88.2328 67.1816 81.7813 67.1816H70.9714C70.9714 76.7299 70.9714 86.2495 70.9714 95.7977H70.9427ZM75.5592 82.78V71.7981H81.7813C85.2795 71.7981 88.1181 74.264 88.1181 77.2747C88.1181 80.3141 85.2795 82.7513 81.7813 82.7513H75.5592V82.78ZM110.684 75.3249H114.727V95.6257H110.684V93.3318C108.878 94.8802 106.555 95.7977 104.003 95.7977C98.2972 95.7977 93.6808 91.1813 93.6808 85.4753C93.6808 79.7693 98.2972 75.1528 104.003 75.1528C106.555 75.1528 108.906 76.0704 110.684 77.6188V75.3249ZM104.003 79.5112C107.301 79.5112 109.996 82.1778 109.996 85.504C109.996 88.8014 107.329 91.4967 104.003 91.4967C100.706 91.4967 98.0105 88.8301 98.0105 85.504C98.0105 82.2065 100.677 79.5112 104.003 79.5112Z" fill="#EE4E2C"/>
</svg>
